<svg width="32" height="32" viewBox="0 0 32 32" fill="none" xmlns="http://www.w3.org/2000/svg">
<g id="basil:search-solid">
<path id="Vector" fill-rule="evenodd" clip-rule="evenodd" d="M19.18 20.5947C17.3827 22.0308 15.1036 22.7242 12.8109 22.5325C10.5183 22.3407 8.38606 21.2784 6.85221 19.5636C5.31836 17.8489 4.49932 15.6119 4.5633 13.3121C4.62728 11.0123 5.56943 8.82436 7.19625 7.19754C8.82306 5.57073 11.011 4.62858 13.3108 4.5646C15.6106 4.50061 17.8476 5.31966 19.5623 6.85351C21.2771 8.38736 22.3394 10.5196 22.5312 12.8122C22.7229 15.1049 22.0295 17.384 20.5934 19.1813L27.468 26.0547C27.5663 26.1462 27.6451 26.2566 27.6997 26.3793C27.7544 26.5019 27.7838 26.6344 27.7862 26.7686C27.7885 26.9029 27.7638 27.0363 27.7135 27.1608C27.6632 27.2853 27.5884 27.3984 27.4934 27.4934C27.3985 27.5883 27.2854 27.6632 27.1608 27.7135C27.0363 27.7638 26.9029 27.7885 26.7687 27.7861C26.6344 27.7838 26.502 27.7544 26.3793 27.6997C26.2567 27.6451 26.1463 27.5662 26.0547 27.468L19.18 20.5947ZM8.61337 18.512C7.63476 17.5333 6.96824 16.2864 6.69806 14.929C6.42787 13.5716 6.56614 12.1646 7.09539 10.8857C7.62464 9.60689 8.52112 8.51363 9.67152 7.74414C10.8219 6.97464 12.1746 6.56344 13.5587 6.56251C14.9427 6.56158 16.296 6.97096 17.4474 7.7389C18.5988 8.50685 19.4968 9.5989 20.0278 10.877C20.5587 12.1552 20.6989 13.562 20.4305 14.9198C20.1622 16.2776 19.4973 17.5253 18.52 18.5053L18.5134 18.512L18.5067 18.5173C17.1935 19.8275 15.4139 20.5628 13.5589 20.5618C11.7039 20.5608 9.92517 19.8236 8.61337 18.512Z" fill="black"/>
</g>
</svg>
