<svg width="24" height="24" viewBox="0 0 24 24" fill="none" xmlns="http://www.w3.org/2000/svg">
<g id="bi:pin-angle">
<path id="Vector" d="M14.742 1.08299C14.8406 1.08282 14.9382 1.10207 15.0293 1.13965C15.1204 1.17722 15.2032 1.23239 15.273 1.30199L22.698 8.72699C22.8386 8.86764 22.9176 9.05837 22.9176 9.25724C22.9176 9.45612 22.8386 9.64685 22.698 9.78749C21.978 10.5075 21.09 10.6695 20.4435 10.6695C20.178 10.6695 19.941 10.6425 19.7535 10.611L15.0525 15.312C15.1757 15.8107 15.256 16.3191 15.2925 16.8315C15.3615 17.8845 15.2445 19.362 14.2125 20.394C14.0719 20.5346 13.8811 20.6136 13.6823 20.6136C13.4834 20.6136 13.2927 20.5346 13.152 20.394L8.90851 16.152L4.13551 20.925C3.84301 21.2175 2.30701 22.278 2.01451 21.9855C1.72201 21.693 2.78251 20.1555 3.07501 19.8645L7.84801 15.0915L3.60601 10.848C3.4654 10.7073 3.38642 10.5166 3.38642 10.3177C3.38642 10.1189 3.4654 9.92814 3.60601 9.78749C4.63801 8.75549 6.11551 8.63699 7.16851 8.70749C7.68093 8.74398 8.18928 8.82427 8.68801 8.94749L13.389 4.24799C13.3512 4.01938 13.3312 3.78819 13.329 3.55649C13.329 2.91149 13.491 2.02349 14.2125 1.30199C14.3531 1.16179 14.5435 1.08304 14.742 1.08299ZM14.925 4.24799V4.25099C14.9683 4.38295 14.9742 4.52434 14.9418 4.65941C14.9095 4.79448 14.8403 4.91793 14.742 5.01599L9.43951 10.317C9.34098 10.4151 9.21713 10.4839 9.08178 10.5157C8.94642 10.5475 8.8049 10.541 8.67301 10.497H8.67001L8.64901 10.491C8.50617 10.4487 8.36211 10.4107 8.21701 10.377C7.83958 10.2894 7.45593 10.2313 7.06951 10.203C6.43651 10.161 5.81551 10.215 5.30701 10.428L13.572 18.6915C13.7835 18.1815 13.8375 17.562 13.7955 16.929C13.7564 16.3932 13.6599 15.8632 13.5075 15.348L13.5015 15.3285C13.4572 15.1964 13.4506 15.0531 13.4824 14.9174C13.5142 14.7818 13.5831 14.6577 13.6815 14.559L18.9855 9.25649C19.0876 9.15373 19.2174 9.08276 19.359 9.05215C19.5006 9.02153 19.648 9.0326 19.7835 9.08399L19.9275 9.11699C20.058 9.14249 20.2395 9.16799 20.4435 9.16799C20.6155 9.16999 20.787 9.14999 20.958 9.10799L14.8905 3.04199C14.8485 3.21399 14.8285 3.38549 14.8305 3.55649C14.8316 3.78954 14.8629 4.02147 14.9235 4.24649L14.925 4.24799Z" fill="black"/>
</g>
</svg>
