<svg width="250" height="250" viewBox="0 0 250 250" fill="none" xmlns="http://www.w3.org/2000/svg">
<g clip-path="url(#clip0_230_1906)">
<path d="M172.813 78.9583L104.167 147.604L66.7709 110.312L52.0834 125L104.167 177.083L187.5 93.75L172.813 78.9583ZM125 20.8333C67.5 20.8333 20.8334 67.5 20.8334 125C20.8334 182.5 67.5 229.167 125 229.167C182.5 229.167 229.167 182.5 229.167 125C229.167 67.5 182.5 20.8333 125 20.8333ZM125 208.333C78.9584 208.333 41.6667 171.042 41.6667 125C41.6667 78.9583 78.9584 41.6667 125 41.6667C171.042 41.6667 208.333 78.9583 208.333 125C208.333 171.042 171.042 208.333 125 208.333Z" fill="#006078"/>
</g>
<defs>
<clipPath id="clip0_230_1906">
<rect width="250" height="250" fill="white"/>
</clipPath>
</defs>
</svg>
