<svg width="32" height="32" viewBox="0 0 32 32" fill="none" xmlns="http://www.w3.org/2000/svg">
<g id="clarity:notification-line">
<path id="Vector" d="M28.8977 24.7378C28.0406 23.9736 27.2901 23.0976 26.6666 22.1333C25.9853 20.8025 25.5772 19.3488 25.4666 17.8578V13.4667C25.4725 11.125 24.6231 8.86175 23.0779 7.10219C21.5328 5.34264 19.3983 4.20787 17.0755 3.91111V2.76444C17.0755 2.44972 16.9505 2.14788 16.7279 1.92534C16.5054 1.7028 16.2036 1.57777 15.8888 1.57777C15.5741 1.57777 15.2723 1.7028 15.0497 1.92534C14.8272 2.14788 14.7022 2.44972 14.7022 2.76444V3.92889C12.4002 4.24704 10.2915 5.38867 8.76664 7.14231C7.2418 8.89596 6.40415 11.1428 6.40884 13.4667V17.8578C6.29822 19.3488 5.8902 20.8025 5.20884 22.1333C4.59629 23.0954 3.8579 23.9713 3.01328 24.7378C2.91847 24.8211 2.84247 24.9236 2.79036 25.0386C2.73825 25.1535 2.71122 25.2782 2.71106 25.4044V26.6133C2.71106 26.8491 2.80471 27.0752 2.97141 27.2419C3.13811 27.4086 3.3642 27.5022 3.59995 27.5022H28.3111C28.5468 27.5022 28.7729 27.4086 28.9396 27.2419C29.1063 27.0752 29.1999 26.8491 29.1999 26.6133V25.4044C29.1998 25.2782 29.1728 25.1535 29.1206 25.0386C29.0685 24.9236 28.9925 24.8211 28.8977 24.7378ZM4.55995 25.7244C5.38679 24.9253 6.11494 24.0301 6.72884 23.0578C7.58732 21.4506 8.08767 19.6767 8.1955 17.8578V13.4667C8.16025 12.4249 8.33499 11.3867 8.70932 10.4139C9.08365 9.44112 9.64991 8.55358 10.3744 7.80417C11.0989 7.05477 11.9667 6.45881 12.9263 6.0518C13.8859 5.64478 14.9176 5.43503 15.9599 5.43503C17.0023 5.43503 18.034 5.64478 18.9936 6.0518C19.9532 6.45881 20.821 7.05477 21.5455 7.80417C22.27 8.55358 22.8362 9.44112 23.2106 10.4139C23.5849 11.3867 23.7596 12.4249 23.7244 13.4667V17.8578C23.8322 19.6767 24.3326 21.4506 25.1911 23.0578C25.805 24.0301 26.5331 24.9253 27.3599 25.7244H4.55995Z" fill="black"/>
<path id="Vector_2" d="M16 30.4711C16.56 30.4582 17.0973 30.2477 17.517 29.8768C17.9367 29.5059 18.2117 28.9985 18.2934 28.4444H13.6178C13.7018 29.0136 13.9896 29.5329 14.4278 29.9057C14.866 30.2785 15.4248 30.4794 16 30.4711Z" fill="black"/>
</g>
</svg>
