<svg width="250" height="250" viewBox="0 0 250 250" fill="none" xmlns="http://www.w3.org/2000/svg">
<mask id="mask0_137_2091" style="mask-type:alpha" maskUnits="userSpaceOnUse" x="0" y="0" width="250" height="250">
<rect width="250" height="250" fill="#D9D9D9"/>
</mask>
<g mask="url(#mask0_137_2091)">
<path d="M124.995 135.417L41.6616 83.3333V187.5H135.412V208.333H41.6616C35.9325 208.333 31.028 206.293 26.9481 202.213C22.8682 198.134 20.8283 193.229 20.8283 187.5V62.4999C20.8283 56.7708 22.8682 51.8663 26.9481 47.7864C31.028 43.7065 35.9325 41.6666 41.6616 41.6666H208.328C214.057 41.6666 218.962 43.7065 223.042 47.7864C227.122 51.8663 229.162 56.7708 229.162 62.4999V135.417H208.328V83.3333L124.995 135.417ZM124.995 114.583L208.328 62.4999H41.6616L124.995 114.583ZM197.912 239.583L183.328 225L199.735 208.333H156.245V187.5H199.735L183.068 170.833L197.912 156.25L239.578 197.917L197.912 239.583ZM41.6616 83.3333V197.917V135.417V136.198V62.4999V83.3333Z" fill="#006078"/>
</g>
</svg>
