<svg width="250" height="290" viewBox="0 0 250 290" fill="none" xmlns="http://www.w3.org/2000/svg">
<g clip-path="url(#clip0_137_1913)">
<path fill-rule="evenodd" clip-rule="evenodd" d="M66.0833 65.1288C65.7863 69.9792 65.4894 74.8287 65.1929 79.679C67.102 79.1293 79.2455 75.5563 78.4956 79.1789C77.9572 81.7774 74.5432 84.5882 72.8036 86.3972C71.2028 88.0628 69.5541 89.6851 67.8637 91.2598C70.9706 90.0703 74.1037 88.944 77.259 87.8904C79.6468 87.0929 82.0522 86.3148 84.4988 85.7171C85.4069 85.4951 87.8589 84.5895 88.717 85.2069C90.9714 86.8296 78.7391 98.7801 77.0634 100.465C79.4327 99.3626 81.8591 98.3616 84.3263 97.5027C86.108 96.8828 91.612 94.5127 93.1884 96.5366C94.8758 98.7019 90.6955 103.674 89.5359 105.25C87.8749 107.509 86.0748 109.676 84.1859 111.748C92.0363 118.799 101.262 125.076 111.08 128.976C118.278 131.837 125.35 132.565 132.946 130.995C140.75 129.382 148.234 126.29 155.348 122.754C159.526 120.677 163.65 118.43 167.578 115.905C165.958 113.936 164.386 111.925 162.858 109.883C160.679 106.968 157.999 103.784 156.756 100.314C155.539 96.9177 160.104 97.5805 162.293 97.7652C165.463 98.0323 168.625 98.5988 171.732 99.2768C169.535 97.7488 167.378 96.1598 165.265 94.519C162.51 92.3807 158.835 89.9631 157.032 86.8868C155.446 84.1819 158.926 84.865 160.536 85.2191C164.372 86.0645 168.105 87.5047 171.765 88.9095C174.444 89.9383 177.108 91.0158 179.745 92.1506C178.108 90.7273 176.526 89.2359 175.005 87.6897C172.961 85.6116 170.205 83.0732 169.288 80.2115C167.422 74.3828 179.976 78.7794 182.119 79.679C181.723 73.6413 181.328 67.6036 180.932 61.5659C164.309 65.9889 147.686 70.4128 131.063 74.8362C129.266 75.3145 127.018 76.3554 125.145 76.411C123.448 76.4619 121.398 75.6976 119.744 75.3818L89.6625 69.6343C81.8027 68.1323 73.943 66.6308 66.0833 65.1288Z" fill="#006078"/>
<path fill-rule="evenodd" clip-rule="evenodd" d="M244.745 272.797C242.95 273.824 240.848 274.617 238.854 275.149C237.683 275.462 235.749 276.427 234.72 275.542C234.226 275.117 234.113 274.153 233.821 273.594C233.36 272.708 232.705 271.944 232.091 271.162C230.602 269.266 229.053 267.437 227.433 265.653C226.665 264.808 225.262 262.835 223.909 262.965C222.223 263.127 222.263 265.461 222.686 266.654C224.031 270.451 228.105 273.761 230.766 276.622C230.089 277.663 226.374 277.539 225.342 277.295C223.767 276.923 223.607 275.802 222.888 274.519C221.207 271.52 217.795 269.842 214.991 268.08C213.969 267.436 211.796 265.654 210.463 266.103C209.201 266.528 209.255 268.141 209.658 269.194C210.265 270.786 211.993 271.89 213.271 272.896C214.976 274.238 216.534 275.697 217.954 277.339C215.907 277.506 213.867 277.794 211.826 277.962C209.356 278.166 207.298 276.811 205.025 276.043C202.913 275.329 200.808 274.726 198.731 273.904C196.399 272.98 193.957 272.659 191.604 271.848C182.372 268.669 173.327 264.67 164.431 260.639C160.192 258.718 156.04 256.796 151.623 255.293C148.404 254.197 143.346 252.014 142.577 248.179C142.17 246.153 143.65 243.975 143.869 241.951C144.124 239.569 143.923 236.949 143.198 234.665C142.558 232.652 141.499 230.788 140.664 228.856C139.691 226.603 140.562 226.64 142.452 226.384C144.714 226.077 147.353 224.804 149.479 223.975C151.929 223.019 154.357 221.683 156.6 220.31C158.629 219.069 160.394 217.468 162.009 215.73C163.652 213.962 164.716 211.866 166.305 210.054C172.167 217.264 177.74 224.585 183.97 231.483C186.91 234.74 190.107 237.432 193.731 239.907C195.244 240.942 196.745 242.123 198.393 242.94C200.454 243.963 202.759 244.598 204.877 245.532C213.001 249.111 220.754 253.024 228.332 257.642C231.999 259.876 235.076 262.438 238.304 265.24C239.309 266.113 247.54 271.197 244.745 272.797ZM149.451 213.728C148.138 214.323 146.887 215.095 145.486 215.477C145.883 213.061 148.138 209.417 151.028 209.818C152.133 209.971 152.965 210.828 152.48 212.011C152.039 213.085 150.386 213.305 149.451 213.728ZM58.0745 148.202C56.5864 149.023 55.1997 149.502 54.327 147.738C54.9734 147.608 57.9096 147.217 58.0745 148.202ZM55.5968 143.216C54.4464 142.867 55.3663 142.5 55.7621 142.079C56.0704 141.752 57.0912 140.603 57.4482 140.413C59.0259 139.577 60.2452 142.687 60.9998 143.696C59.2139 143.537 57.3351 143.743 55.5968 143.216ZM67.8938 153.982C65.7139 154.351 65.9557 151.624 66.0209 150.242C66.4806 150.804 69.5935 153.694 67.8938 153.982ZM75.118 149.271C72.4603 149.72 70.7043 145.128 71.1808 143.12C71.5997 141.35 73.6594 140.362 75.2993 140.101C76.8883 139.848 79.1011 140.194 79.573 142.026C79.9902 143.646 76.8892 148.972 75.118 149.271ZM138.028 218.587C136.118 219.174 134.247 219.248 132.327 219.824C130.15 220.478 128.134 220.42 125.951 220.865C125.063 221.045 122.668 222.339 121.802 222.05C120.944 221.764 119.703 219.102 119.21 218.409C123.071 216.804 126.365 214.732 128.91 211.35C130.934 208.661 133.104 204.632 131.831 201.161C130.395 197.247 125.445 196.398 122.145 198.032C120.584 198.805 119.037 199.766 117.749 200.944C116.277 202.291 115.699 203.761 114.745 205.422C113.781 207.102 113.104 206.168 112.141 204.741C111.318 203.522 111.425 202.29 110.396 201.087C109.871 200.473 109.058 199.881 108.784 199.088C108.611 198.586 108.977 197.694 108.647 197.299C108.184 196.743 107.621 197.396 107.232 196.9C106.951 196.539 107.043 195.717 106.752 195.265C106.499 195.009 106.218 194.79 105.908 194.608C105.531 194.422 105.462 194.189 105.701 193.909C105.402 193.355 105.69 193.168 105.049 192.492C104.049 191.441 103.137 190.433 102.425 189.192C102.099 188.623 102.131 187.781 101.727 187.289C101.172 186.614 100.248 186.715 99.7714 185.879C99.3466 185.135 99.631 183.832 98.9302 183.156C98.561 183.05 98.1912 182.947 97.8215 182.845C97.5431 182.575 97.3812 182.247 97.3349 181.861C96.9459 181.262 96.8685 180.558 96.3772 179.925C95.4367 178.715 94.172 177.596 93.3413 176.32C92.4682 174.978 92.9312 174.752 94.4479 174.273C95.8157 173.839 97.0649 173.437 98.333 172.699C104.195 169.287 109.752 160.238 100.448 157.474C96.9951 156.448 94.1585 153.689 90.3298 154.773C88.6702 155.243 87.0958 156.244 85.8576 157.432C85.0021 158.253 84.2097 160.45 83.1595 160.87C81.271 161.626 82.0693 159.737 81.5334 158.869C81.2773 158.455 80.2472 157.977 79.8653 157.6C79.4174 157.158 78.9842 156.6 78.6729 156.053C78.0954 155.038 77.7421 154.472 76.9094 153.646C76.5956 153.334 75.028 151.722 76.4417 151.932C75.8692 150.188 76.7045 149.925 77.8595 148.651C79.2155 147.154 80.6157 145.073 80.6237 142.976C80.6392 138.948 75.8671 137.144 72.8699 139.534C72.2601 140.021 68.653 144.717 69.3912 141.722C69.789 140.107 73.4735 135.891 75.1815 136.982C73.2674 134.192 68.87 140.966 67.8438 142.352C66.9698 140.743 66.9079 139.484 65.4619 138.239C64.2847 140.127 64.9063 138.063 64.6468 137.643C64.0861 136.738 64.394 137.774 64.0899 137.452C63.7114 137.051 63.1154 136.735 62.7125 136.205C62.0223 137.141 62.2982 136.133 62.0866 135.784C61.5924 134.966 61.7834 134.492 60.9363 133.781C60.3197 133.264 59.105 132.461 58.2751 132.388C57.3183 132.303 57.0533 132.669 56.0784 132.398C54.838 132.053 53.2772 131.523 53.8774 133.598C54.3135 135.106 56.0859 135.962 56.4741 137.503C56.8649 139.053 55.3318 140.615 54.5882 141.886C53.633 143.517 52.8519 143.384 51.1216 143.751C50.0158 143.986 48.54 144.49 49.4884 145.831C50.1656 146.789 51.7529 146.587 52.6467 147.155C53.9001 147.951 53.8828 149.914 55.4832 150.255C57.2455 150.631 58.255 148.669 59.7409 148.195C60.7975 147.858 64.0706 147.896 64.9021 148.689C66.0352 149.77 65.056 151.835 65.3412 153.178C65.7656 155.169 67.1128 155.291 68.8166 155.354C70.9141 155.433 71.6515 157.447 72.7795 159.044C75.4217 162.786 77.7182 166.775 80.4247 170.467C81.623 172.102 83.3756 173.556 84.3565 175.331C85.5678 177.522 83.8863 178.786 82.4348 180.358C80.5383 182.413 79.1226 184.752 77.4776 186.998C76.016 188.994 74.1994 188.497 71.8639 188.497C72.3841 187.424 73.0104 186.755 74.2911 186.885C72.9519 185.25 71.8811 187.12 71.0126 188.156C69.7558 189.655 68.1176 190.016 66.5033 191.001C65.9321 191.35 62.8218 193.609 63.7669 194.381C63.8742 194.468 69.0231 191.081 69.6095 190.77C69.6095 192.021 69.3361 193.32 69.5114 194.563C69.6397 195.475 70.2807 196.426 70.144 197.374C69.8854 199.164 67.5725 200.573 66.5799 201.967C65.8325 203.017 66.0129 203.845 65.6327 204.971C65.2857 205.999 65.4678 205.688 64.6035 206.005C62.8437 206.652 59.8814 206.303 58.2878 205.384C57.2985 204.813 56.5402 203.912 55.7364 203.117C55.1312 202.518 53.6086 201.495 53.4404 200.656C53.1518 199.213 56.0174 196.531 56.5843 195.042C58.186 190.84 55.4395 187.574 51.1653 187.336C52.4826 186.32 54.1154 187.085 55.5038 187.473C53.1304 184.184 49.0762 186.891 47.0628 189.126C45.687 185.648 45.0238 181.98 44.1834 178.353C43.611 175.883 41.4318 171.476 42.4038 168.933C42.8736 167.704 44.2002 167.019 45.1175 166.166C46.1602 165.198 47.0531 164.04 47.8153 162.841C49.6108 160.017 50.648 156.452 48.1753 153.669C48.9265 153.545 49.6781 153.422 50.4293 153.299C49.2074 152.15 47.2794 152.71 45.6938 152.369C44.6877 152.153 41.7923 152.293 41.1206 151.724C40.3126 151.039 40.8304 147.889 40.8594 146.956C40.9259 144.777 41.108 142.682 41.3486 140.517C41.5765 138.471 41.5307 136.26 41.9534 134.25C42.2966 132.619 43.3935 132.122 44.6591 131.161C47.684 128.862 50.1492 126.066 49.1162 122.105C49.4821 122.047 49.848 121.989 50.2139 121.931C49.0304 121.075 47.499 121.386 46.1825 120.934C47.3913 117.531 50.0651 111.549 54.4065 111.227C54.5558 112.749 54.4536 114.558 55.4799 115.817C56.6483 117.25 58.6991 117.395 60.2818 116.637C61.7182 115.948 63.0662 114.488 63.7282 113.046C64.1761 112.07 64.0954 110.42 64.8815 109.646C65.9355 108.608 73.2039 109.234 72.9814 110.986C72.8502 112.015 70.9066 113.746 70.3636 114.659C69.3693 116.329 68.5735 118.136 68.2084 120.054C67.6545 122.967 67.9754 126.813 70.9335 128.344C74.2979 130.086 78.3979 127.871 81.157 125.958C82.672 124.907 84.1395 123.747 85.5232 122.529C86.2605 121.881 87.0012 121.214 87.651 120.477C88.1309 119.932 88.5141 119.055 89.1046 118.648C90.4997 117.686 91.8671 119.318 93.0477 120.143C94.9707 121.487 96.884 122.763 98.9483 123.881C103.137 126.15 106.966 129.155 110.67 132.139C114.394 135.141 118.235 138.229 121.253 141.969C119.425 143.093 119.751 143.385 118.938 145.39C118.361 146.814 117.566 148.025 117.474 149.607C117.316 152.335 119.068 154.661 121.727 155.265C123.214 155.603 124.631 155.332 126.008 154.724C127.079 154.252 128.146 153.089 129.265 152.8C131.344 152.263 133.008 156.192 134.173 157.576C139.35 163.721 144.822 169.624 149.697 176.02C150.237 176.728 151.84 178.112 151.971 179.05C152.158 180.397 150.039 181.681 149.16 182.453C148.698 182.858 143.804 187.462 145.448 188.194C145.916 188.402 147.287 185.578 147.63 185.336C148.914 184.432 147.943 186.205 147.867 187.101C147.675 189.328 149.205 190.542 151.356 190.26C153.651 189.958 155.694 188.146 157.114 186.435C158.894 188.497 161.676 191.613 162.19 194.367C162.519 196.126 160.997 200.431 163.839 200.79C164.272 200.845 165.842 199.68 166.135 200.341C166.379 200.893 164.682 201.837 164.437 202.019C163.392 202.8 162.76 203.636 161.916 204.581C160.925 205.691 159.571 206.626 158.455 207.69C157.281 208.81 154.957 211.852 153.407 210.382C152.628 209.644 152.833 208.678 151.585 208.244C150.449 207.849 149.009 208.35 147.953 208.788C146.764 209.281 142.849 211.079 142.414 212.56C141.815 214.602 145.051 212.147 145.626 211.788C144.97 213.454 144.608 215.865 142.937 216.837C141.548 217.644 139.551 218.119 138.028 218.587ZM115.834 205.989C116.945 202.417 123.498 196.049 127.639 198.041C122.813 199.053 118.982 202.356 115.834 205.989ZM118.284 216.216C116.669 215.316 116.756 212.702 116.192 211.172C115.869 210.295 115.221 209.653 115.412 208.68C115.634 207.538 117.091 206.268 117.866 205.445C120.306 202.853 124.599 199.311 128.526 199.905C133.524 200.662 130.135 207.372 128.434 209.683C126.983 211.652 121.394 217.949 118.284 216.216ZM106.624 211.848C101.219 211.488 95.8325 211.004 90.501 210.012C88.6108 209.66 87.0273 209.712 88.1087 207.539C88.4657 206.822 90.6188 202.327 91.105 202.455C91.3931 202.532 91.3275 205.621 91.412 205.976C91.7939 207.566 92.8656 209.049 94.6725 208.948C97.6289 208.783 99.5342 204.96 101.091 202.909C102.338 204.585 103.241 206.448 104.494 208.096C105.093 208.884 107.179 210.718 106.624 211.848ZM74.9355 190.631C74.0287 192.712 72.205 194.691 70.9364 196.577C70.2193 195.059 69.715 191.573 71.4159 190.451C72.0599 190.027 75.5088 189.315 74.9355 190.631ZM93.682 196.828C93.9314 196.026 94.2077 195.232 94.516 194.452C95.0447 196.116 95.3152 196.166 93.682 196.828ZM98.3086 198.532C98.9647 199.644 100.058 200.738 99.8867 202.134C99.7567 203.193 98.8003 204.277 98.1172 205.015C96.9866 206.234 94.4824 208.576 92.8446 206.956C91.4764 205.603 91.9529 201.882 92.5893 200.36C93.4978 198.184 96.7448 195.883 98.3086 198.532ZM95.0986 196.253C95.4746 196.104 94.6847 193.677 95.4178 193.435C96.0571 194.893 96.6598 195.288 95.0986 196.253ZM84.7704 163.589C84.5268 162.693 83.9683 162.73 84.1693 161.623C84.3014 160.898 84.8776 160.122 85.3146 159.547C86.1857 158.401 87.3347 157.456 88.5772 156.74C91.2005 155.23 94.8025 154.603 97.1511 156.967C94.9556 157.314 88.2247 159.481 88.1818 162.484C90.6234 162.014 92.5434 159.561 94.9922 158.788C97.0022 158.154 99.1818 158.199 101.181 158.869C106.655 160.702 104.379 165.432 101.289 168.505C99.4556 170.329 97.2567 171.691 94.853 172.631C93.7405 173.066 93.0578 173.114 91.9643 172.896C91.7594 172.854 91.5201 172.474 91.2745 172.393C90.6642 172.191 90.8413 172.876 90.3387 172.568C89.9 172.3 88.9646 170.569 88.6664 170.074C88.1915 169.285 87.9703 168.518 87.3873 167.798C86.804 167.078 86.5201 166.113 85.9804 165.461C85.7213 165.147 85.0109 165.159 84.8204 164.854C84.534 164.394 84.8986 164.059 84.7704 163.589ZM76.3647 198.869C77.6088 196.708 79.737 194.873 81.3837 192.983C81.4846 196.089 79.2584 198.215 76.3647 198.869ZM78.0458 199.867C80.6148 198.963 82.0302 196.801 82.2922 194.179C82.6249 190.857 84.7102 189.114 85.9657 186.13C86.4473 184.986 87.0084 181.223 88.8746 182.301C89.5147 182.67 89.8945 184.059 90.2281 184.687C91.0352 186.205 91.9529 187.677 92.8088 189.168C93.5058 190.383 94.5505 191.603 94.2431 193.065C93.9747 194.339 93.1121 195.697 92.6065 196.898C91.4133 199.736 89.8457 202.35 88.536 205.126C88.0077 206.245 87.3823 208.896 85.7689 208.883C84.4919 208.872 84.6345 207.476 83.7937 206.997C82.7326 206.393 81.5259 207.543 80.654 208.019C81.6579 206.324 83.4131 205.364 85.3857 205.683C83.0236 203.331 81.4274 206.505 79.4001 207.212C77.4793 207.882 74.0716 204.723 72.4544 203.827C73.0731 202.779 73.6321 201.498 74.6962 200.809C75.7052 200.155 76.9438 200.255 78.0458 199.867ZM57.1597 221.365C57.4411 220.011 58.236 219.21 58.7399 217.98C59.3241 219.471 57.9559 220.351 57.1597 221.365ZM97.9755 229.677C97.8375 234.239 97.4649 238.788 97.3303 243.35C97.2684 245.455 96.8958 247.462 96.6485 249.542C96.4395 251.301 96.5459 253.028 95.4388 254.53C93.6934 256.9 90.2995 257.581 87.6649 258.458C85.7302 259.103 83.7731 259.687 81.8623 260.403C80.1429 261.048 78.7575 262.024 77.1226 262.789C75.6602 263.475 74.0817 263.881 72.626 264.611C71.1202 265.366 69.9304 266.286 68.3838 266.958C66.5323 267.763 65.0068 269.195 63.3602 270.331C61.9108 271.332 60.3773 272.105 59.1302 273.363C57.961 274.543 56.4809 275.061 55.156 276.109C53.755 277.218 52.2883 277.939 50.7405 278.809C47.5696 280.591 43.2917 283.634 39.4756 281.903C40.5671 280.509 42.8009 279.169 42.9708 277.249C43.1916 274.746 41.0142 275.668 39.7532 276.467C37.8433 277.676 36.7867 279.137 35.3327 280.75C33.6331 282.635 31.4859 281.367 29.4061 280.837C30.8281 279.556 32.2388 278.264 33.6583 276.982C34.8566 275.9 36.6904 274.729 37.4202 273.232C37.9417 272.162 37.916 270.695 36.6576 270.14C35.2495 269.518 33.6571 270.829 32.614 271.609C29.8456 273.68 28.0223 276.307 26.2045 279.19C25.2375 280.722 24.7921 280.605 23.013 280.298C21.1278 279.974 19.2427 279.628 17.342 279.4C19.8597 276.814 22.6735 274.013 24.6621 270.987C25.3065 270.007 26.1468 267.423 24.1839 267.185C23.3751 267.087 21.7646 268.741 21.1409 269.187C18.4141 271.136 15.7925 273.594 13.9857 276.44C13.3888 277.379 13.2017 278.424 12.0463 278.502C10.5359 278.604 7.72966 277.162 6.27271 276.717C9.05707 273.207 11.8221 269.671 15.0754 266.576C18.0646 263.731 21.0463 261.664 24.5423 259.483C28.289 257.144 31.7791 254.452 35.2187 251.689C38.5116 249.044 41.9513 246.55 44.9821 243.597C51.0366 237.698 56.4291 230.915 60.8946 223.741C61.9394 222.063 62.9232 220.341 63.7732 218.555C64.5719 216.878 64.94 214.872 66.018 213.346C66.3902 212.819 66.9151 212.428 67.2469 211.878C67.5599 211.36 67.4539 210.734 67.9313 210.275C69.0353 209.215 71.0458 209.854 72.0775 210.598C73.7372 211.792 75.0798 213.242 76.9039 214.242C78.7385 215.248 80.7229 215.98 82.7544 216.474C87.5021 217.628 92.2091 218.575 97.046 219.277C96.5484 221.123 97.7707 221.413 98.1757 223.074C98.6674 225.09 98.0373 227.624 97.9755 229.677ZM52.2589 198.897C51.1826 197.297 50.2219 195.625 49.1637 194.015C48.5194 193.035 47.7206 191.982 48.2716 190.783C49.199 188.761 52.4717 188.401 54.2475 189.282C58.2848 191.286 54.5343 197.015 52.2589 198.897ZM41.5727 162.318C41.2009 159.192 42.3963 156.974 45.2244 155.335C47.2399 154.167 48.863 155.763 48.5875 157.893C48.169 161.137 44.702 164.746 42.056 166.439C41.8831 165.067 41.7364 163.691 41.5727 162.318ZM41.1416 153.374C41.9757 152.711 44.2099 153.556 45.1764 153.614C43.8473 154.775 42.5178 155.937 41.1883 157.098C41.1012 156.301 40.3719 153.985 41.1416 153.374ZM45.6269 123.184C52.3531 122.31 44.6103 129.528 42.6608 130.659C42.978 129.123 43.7573 123.428 45.6269 123.184ZM63.5335 110.546C62.6304 114.246 55.609 118.282 55.5354 112.222C55.5084 109.964 56.7766 110.146 58.628 109.93C59.6842 109.807 64.05 108.432 63.5335 110.546ZM39.2805 116.276C38.4923 118.345 37.8601 120.467 37.0875 122.538C36.7451 123.455 36.3426 124.086 35.705 124.813C35.1712 125.42 34.5361 125.574 34.5571 126.534C35.2259 126.405 35.7491 126.006 36.2892 125.622C36.1584 127.526 35.4854 129.576 35.1594 131.473C34.7691 133.749 34.444 136.026 34.3233 138.334C34.0617 143.352 34.0596 148.352 34.1698 153.374C34.2261 155.932 34.2514 158.493 34.3893 161.048C34.4583 162.32 34.5361 163.596 34.6934 164.86C34.7573 165.37 35.1275 166.456 34.8987 166.934C34.0003 168.811 30.0206 163.656 28.2923 164.412C28.5409 162.984 27.9676 163.297 27.0099 162.594C26.546 162.254 26.244 161.674 25.7603 161.371C25.614 161.213 25.4529 161.073 25.277 160.95C25.0773 160.677 24.8661 160.707 24.6445 161.037C22.6971 159.873 22.1941 157.392 21.1489 155.724C20.6113 154.866 20.0919 154.732 20.0002 153.545C19.9207 152.512 20.0763 151.458 20.0343 150.42C19.9868 149.249 19.9182 147.958 19.5897 146.824C19.2086 145.508 18.6842 145.615 17.6625 144.914C17.9771 144.776 18.1849 144.545 18.2854 144.22C17.9591 144.278 16.9677 144.683 16.7212 144.392C16.2367 143.821 17.3799 143.745 17.6802 143.517C16.3986 142.948 16.6745 142.48 17.1372 141.438C17.268 141.142 17.3929 140.702 17.5044 140.453C17.7475 139.909 17.8875 140.254 17.9679 139.578C18.044 138.934 17.4733 137.668 17.305 136.982C17.0232 135.831 16.8672 134.837 17.1204 133.638C17.3256 132.667 17.8779 131.788 17.9161 130.79C17.9271 130.51 17.5002 130.417 17.4943 130.146C17.4859 129.75 17.8552 129.577 17.9511 129.211C18.1963 128.276 18.0857 127.287 18.505 126.399C18.8823 125.602 19.6444 124.57 20.1836 123.874C20.5575 123.392 21.4748 122.849 21.5754 122.213C21.6418 121.791 20.9853 121.839 21.0143 121.521C21.0542 121.091 21.4151 120.952 21.514 120.632C21.7869 119.755 21.8555 118.912 22.5608 118.24C23.4496 117.394 23.8352 117.748 23.8722 116.352C23.8899 115.671 23.3452 115.567 23.6371 114.781C23.7957 114.355 24.2634 114.103 24.5624 113.801C25.4508 112.905 26.0497 112.11 26.6823 111.002C27.2417 110.024 28.1338 109.455 28.707 108.61C29.4532 107.509 28.3373 106.963 29.8519 106.652C29.6366 105.969 29.4077 105.416 29.9743 104.838C30.3318 104.472 31.2382 104.696 31.5545 104.274C31.917 103.789 31.3812 102.64 31.9276 102.326C32.3717 102.07 33.0367 102.858 33.7349 102.468C34.2665 102.171 35.0699 100.53 34.8987 99.9262C36.274 100.7 35.9312 100.167 36.5895 99.1746C36.7371 98.9521 37.1842 98.9029 37.3112 98.6779C37.5653 98.2291 37.5072 97.7715 37.8736 97.4064C38.4834 96.7991 39.4815 96.9551 40.1528 96.521C40.7076 96.1627 40.6781 95.7762 41.1206 95.438C41.4987 95.149 42.1199 95.0935 42.4875 94.7941C43.2076 94.2073 43.2148 93.5882 44.1157 93.0827C45.1827 92.485 46.1278 91.9761 47.0986 91.1832C47.7312 90.6667 48.3318 89.7502 49.072 89.4096C50.0958 88.9381 50.8932 88.9048 51.8947 88.2319C52.6185 87.7457 53.3028 86.9432 54.0132 86.5331C54.5495 86.2244 54.9255 86.2908 55.601 86.0994C56.8169 85.7546 57.113 84.6088 58.1048 84.1424C58.7858 83.8223 59.7771 84.1155 60.5249 83.9472C62.8517 83.4249 65.1503 82.2981 67.4854 81.6739C70.3354 80.9126 73.206 80.2456 76.0778 79.5722C73.4386 83.1494 70.0771 86.377 66.6678 89.2182C65.5486 90.1507 59.4162 94.4025 62.7217 96.2182C64.0487 96.9467 66.9311 94.593 68.0023 94.0176C70.1596 92.8589 72.3938 91.9315 74.6533 90.9944C78.3066 89.479 83.0644 86.7838 87.1245 87.0008C84.653 90.0329 81.5679 92.4669 78.7411 95.1453C76.1435 97.607 72.2294 99.9157 73.4541 103.945C69.8054 103.017 66.5281 101.919 62.7343 102.163C61.0351 102.271 59.3346 102.067 57.643 102.305C55.8037 102.565 54.0717 103.18 52.3039 103.721C50.9054 104.148 49.3601 104.181 48.0735 104.892C47.4519 105.235 46.683 105.726 46.1245 106.152C45.3796 106.72 45.2105 107.097 44.6254 107.845C42.5393 110.517 40.5204 113.021 39.2805 116.276ZM27.8684 166.84C27.7544 166.377 27.6509 165.956 27.5201 165.427C28.6814 166.142 28.6814 166.142 27.8684 166.84ZM19.0917 152.113C18.9487 152.311 18.3473 152.374 18.1727 152.204C17.9553 151.991 18.5269 151.164 18.6185 150.989C18.8452 151.162 19.3668 151.732 19.0917 152.113ZM16.6056 146.754C16.7591 146.189 16.9134 145.624 17.067 145.06C17.2558 145.583 18.1071 146.162 18.126 146.66C18.1378 146.991 16.7738 146.826 16.6056 146.754ZM17.0989 147.528C18.4314 148.405 18.571 149.44 18.6105 150.955C17.0161 150.426 17.2449 148.883 17.0989 147.528ZM40.2718 87.7776C40.1376 88.1419 39.5665 89.2762 39.1484 88.483C39.0147 88.2289 39.9938 87.8824 40.2718 87.7776ZM39.8895 86.5415C40.2188 86.2446 40.8825 86.6138 41.2552 86.3741C41.5164 86.2054 41.4297 86.0351 41.5526 85.9354C41.5769 85.9152 41.9319 85.1968 42.0774 85.0337C42.3344 84.7472 42.8947 84.5685 43.2068 84.3094C44.0795 83.586 44.572 82.635 45.1213 81.6676C45.7762 80.5126 45.9852 80.3789 47.0418 79.8498C47.7703 79.4851 48.3347 79.0389 48.9273 78.4193C49.6104 77.7056 49.5603 77.1945 50.121 76.4143C50.3982 76.029 50.7969 75.9815 51.1195 75.6711C51.5064 75.2997 51.7029 74.7799 52.0608 74.4051C52.2152 74.2428 52.7115 74.2432 52.8048 74.1044C52.9243 73.9286 53.0172 73.2258 53.1291 73.0962C53.3424 73.3847 53.5564 73.6733 53.7697 73.9618C54.6117 72.4809 55.2262 71.2574 56.6344 70.2719C58.1132 69.2368 59.3897 67.7226 60.9182 66.7961C61.2618 66.5879 61.9617 66.5 62.2241 66.1933C62.6679 65.6739 62.2835 65.2121 62.6073 64.7709C62.9745 64.2708 63.6862 64.6758 64.153 64.46C64.744 64.1875 64.913 63.3905 65.6735 63.4784C63.1722 66.4381 63.2033 71.0428 63.0708 74.7395C63.0132 76.3323 64.0163 77.1352 62.5354 78.3036C61.2757 79.2984 59.4995 79.0031 58.0102 79.6576C56.1398 80.4794 54.1394 80.9164 52.2316 81.6327C50.2577 82.3734 48.6708 83.6701 46.7713 84.5281C45.0961 85.2843 43.9525 86.3594 42.4202 87.2931C41.8507 87.6401 40.9688 88.144 40.2895 87.7293C39.8643 87.4693 39.3343 87.042 39.8895 86.5415ZM68.1432 61.7262C68.2518 61.3056 70.3871 60.2006 70.9125 59.8402C71.7007 59.298 72.8678 57.9748 73.7477 58.5006C74.0527 57.2792 75.2425 55.9202 76.2936 55.6615C77.4599 55.3739 79.4603 54.3741 80.6077 53.5009C80.9429 53.246 81.0531 52.8734 81.4476 52.6341C82.1345 52.2177 82.8154 52.4448 83.477 51.8774C83.5779 51.7908 84.4932 50.2795 84.5294 50.2938C84.576 50.4562 84.6189 50.6202 84.656 50.7851C85.3504 50.3998 85.9691 50.0932 86.4019 49.602C86.4999 49.4905 85.8635 49.2007 86.0645 48.9803C86.3106 48.7099 86.8595 49.0119 87.108 48.7553C86.335 52.5933 86.9104 57.5328 90.8038 59.4781C86.1739 59.9786 81.6516 58.5864 76.9645 59.4415C74.721 59.8511 72.4401 60.5228 70.3993 61.555C69.1489 62.1876 67.5498 64.4525 66.3052 63.3526C66.799 62.694 67.5527 62.2847 68.1432 61.7262ZM90.6083 50.6859C92.3399 48.5681 94.9661 47.7299 97.6108 48.4882C100.707 49.3765 99.4013 51.5401 98.9336 53.9426C98.0403 52.6324 96.1047 51.3331 94.4563 51.2936C92.1195 51.2381 93.0027 53.1851 94.4059 53.8824C95.6815 54.5162 97.8695 54.6929 98.7826 55.8458C99.6713 56.9671 99.3307 58.8013 99.4741 60.1237C98.783 60.021 98.092 59.9184 97.4009 59.8158C97.9809 56.729 95.4283 56.5793 93.0486 55.7091C90.6436 54.83 88.6382 53.0959 90.6083 50.6859ZM98.3637 43.0848V45.9495C97.4014 45.4002 96.4382 44.8517 95.475 44.3028C96.4382 43.897 97.4014 43.4907 98.3637 43.0848ZM106.103 65.9746C109.318 66.8457 112.511 67.7676 115.601 68.9697C116.723 69.4063 117.953 69.5607 119.053 70.0536C120.1 70.5226 120.257 70.4738 119.884 71.3915C118.841 73.9631 116.369 73.5189 114.203 73.1256C110.813 72.5099 107.494 71.6561 104.146 70.8527C100.874 70.0683 97.5326 69.5535 94.31 68.5701C91.0028 67.5615 87.7802 66.6059 84.3783 65.9397C83.3857 65.7454 75.5323 65.0249 75.592 64.2039C80.5379 63.5617 85.6301 64.1946 90.5982 64.2615C95.761 64.3309 101.095 64.6173 106.103 65.9746ZM101.739 56.0279C101.8 54.2597 101.825 52.486 102.045 50.7283C103.516 52.5445 104.844 53.0883 106.699 51.3857C108.475 49.7563 108.871 48.9067 111.123 50.4385C113.074 51.7676 114.921 51.7062 116.994 50.5433C118.258 49.8337 120.29 46.9349 121.619 47.5318C122.252 47.8161 122.716 48.9627 123.356 49.3845C124.158 49.9128 125.392 50.2796 126.327 50.4848C128.536 50.9685 129.851 49.5481 131.238 48.0285C133.248 45.8254 133.189 47.1049 135.053 48.6325C137.132 50.3368 138.87 49.5044 140.753 48.05C141.899 51.4101 142.328 55.0794 142.653 58.6019C142.762 59.7914 143.17 61.4801 142.102 62.3213C141.349 62.9143 139.751 62.9375 138.844 63.2651C135.603 64.4369 132.489 66.0995 129.779 68.2274C128.723 69.0568 127.802 70.0721 126.359 69.8832C124.983 69.7032 123.647 68.5521 122.541 67.7916C121.341 66.9672 120.126 66.031 118.723 65.5717C117.902 65.3025 116.586 65.4001 115.867 64.9063C114.53 63.989 116.103 61.5823 115.77 59.9668C115.518 58.7403 114.812 56.1831 113.123 56.9019C110.609 57.9715 112.072 62.1472 113.455 63.4506C110.627 62.9484 107.496 62.2149 104.768 61.2828C102.661 60.5632 101.663 58.1843 101.739 56.0279ZM149.168 64.6396C154.974 63.0094 160.406 61.9104 166.447 61.6134C169.122 61.4818 171.711 61.5651 174.355 61.589C175.878 61.6029 177.038 60.3752 175.822 58.9628C174.138 57.0075 169.004 57.7519 166.729 57.664C160.631 57.4285 155.04 58.1216 149.265 60.1317C149.875 59.0066 151.342 58.8606 152.348 58.2789C153.581 57.5647 154.42 56.3883 154.947 55.0828C156.318 51.6873 154.938 48.4878 153.504 45.3863C156.321 46.1442 159.235 47.8039 162.068 48.2253C162.662 48.3137 163.043 48.2569 163.568 48.4731C163.89 48.6056 163.992 49.064 164.392 49.1641C164.585 49.2125 165.048 48.7763 165.267 48.8382C166.13 49.0821 165.448 49.1469 165.993 49.4998C166.426 49.7799 166.391 50.1408 167.185 50.0083C167.537 49.9502 167.919 49.4055 168.104 49.3904C168.34 49.3715 168.286 49.0838 168.647 49.1675C169.305 49.3206 169.247 50.1681 169.466 50.5853C169.7 51.0291 169.368 51.6196 170.078 51.8627C170.608 52.0448 170.742 51.4841 171.193 51.5245C171.467 51.5489 172.035 51.9434 172.277 52.184C173.057 52.9588 174.124 53.8138 175.172 54.3177C175.069 54.2143 175.666 53.9648 175.523 53.9064C175.428 53.8673 176.055 54.0187 176.045 54.0162C176.65 54.1541 176.97 55.0832 177.276 55.4222C177.838 56.043 178.712 56.6987 179.501 56.973C180.864 57.447 180.822 56.88 181.32 58.5002C182.289 56.9763 182.661 59.5281 183.862 59.8091C184.485 59.9546 184.412 59.6879 184.978 60.0139C185.366 60.2372 185.625 60.9211 185.918 61.2513C186.043 60.7752 186.169 60.2986 186.294 59.8229C187.16 61.4633 189.028 64.0638 191.078 63.5936C191.078 64.0411 190.893 64.5761 191.24 64.958C191.481 65.2251 191.873 64.9219 192.063 65.0771C192.228 65.2125 192.623 65.7517 192.75 65.8405C192.999 66.0154 193.452 66.1429 193.668 66.3174C193.859 66.4709 193.954 67.204 194.166 67.4686C194.564 67.9666 195.252 68.0654 195.577 68.6623C195.651 68.0738 195.725 67.4846 195.799 66.8957C196.445 67.3946 196.5 67.7815 196.659 68.5113C196.884 69.5501 196.585 69.3066 197.302 69.7453C198.006 70.1764 198.373 70.128 199.018 70.8763C199.651 71.6098 199.657 72.0615 200.57 71.2977C200.74 71.863 200.795 72.594 201.248 73.0272C201.59 73.3545 203.009 73.3688 203.144 74.1418C200.48 71.8937 202.233 75.3081 203.145 74.1477C203.338 75.3897 204.247 75.791 205.285 76.6755C206.254 77.4999 206.412 77.4402 206.743 78.8252C206.735 78.7949 207.229 79.1011 207.265 79.1625C206.322 79.2971 207.784 80.3511 208.031 80.5438C208.212 80.6847 208.447 80.3486 208.747 80.5761C209.089 80.8369 209.369 81.4291 209.647 81.7862C210.404 82.7544 210.963 83.5859 211.759 84.3733C212.617 85.2229 213.035 86.2971 213.859 87.2902C214.774 88.393 215.269 89.6607 216.034 90.8581C216.761 91.9967 217.726 92.9106 218.568 93.9533C219.91 95.6121 220.367 99.2663 222.869 99.3626C222.723 99.514 222.927 100.647 222.951 100.856C223.069 101.884 222.99 102.874 223.599 103.805C223.738 102.743 224.294 103.152 224.777 103.71C225.58 104.639 224.875 104.405 224.917 105.346C224.969 106.487 225.098 105.605 225.533 106.601C225.873 107.381 226.06 107.887 226.242 108.753C224.829 108.865 224.182 107.71 223.659 106.591C223.441 106.123 223.365 105.354 222.979 104.988C222.567 104.599 222.002 104.568 221.579 104.133C220.768 103.299 220.416 101.997 219.46 101.184C218.38 100.266 218.14 99.8328 217.247 98.7355C216.259 97.5216 214.894 96.6691 213.858 95.4952C212.82 94.3188 212.904 94.961 211.6 94.5354C210.214 94.082 207.971 89.7221 206.224 91.4015C206.293 90.3029 204.648 89.2695 203.817 88.8716C203.457 88.6996 203.039 88.8552 202.679 88.5974C202.289 88.3177 202.261 87.7785 201.867 87.4424C201.867 87.4424 201.264 87.5892 201.142 87.5274C200.893 87.4012 200.891 86.9545 200.671 86.8073C200.062 86.4006 199.336 85.9741 198.69 85.6275C197.119 84.7851 195.732 83.7479 194.216 82.7338C192.918 81.8649 191.346 80.2956 189.846 79.8376C188.535 79.4376 187.711 79.6412 186.638 78.8403C186.053 78.4037 186.225 78.2574 185.286 77.9861C184.391 77.7278 183.889 77.8608 183.415 76.9123C182.586 75.2526 183.109 72.0132 182.949 70.152C182.779 68.1769 182.576 66.1525 182.062 64.2321C181.453 61.9621 180.648 60.7756 178.213 61.3102C173.389 62.3705 168.623 63.3791 163.777 64.3103C154.12 66.1652 144.629 69.1926 135.184 71.8803C134.465 72.0855 130.452 73.0041 131.271 70.9289C131.649 69.9716 134.189 69.6149 135.04 69.3142C139.708 67.6621 144.397 65.9788 149.168 64.6396ZM147.546 60.4156C146.841 60.6843 146.136 60.9531 145.43 61.2223V59.261C146.136 59.6455 146.841 60.0303 147.546 60.4156ZM144.615 50.0453C145.228 50.5462 146.474 49.3408 146.995 49.0964C147.885 48.6796 149.018 48.3212 150.013 48.407C151.847 48.5656 153.188 50.3712 152.852 52.2021C152.283 55.2994 147.87 56.7639 145.437 57.9748C145.359 56.8771 145.004 55.5576 145.774 54.6084C146.442 53.784 147.738 53.8437 148.354 52.9668C149.906 50.7632 145.701 50.5635 144.761 52.3157C144.39 51.1956 144.019 50.076 143.648 48.9559C144.543 48.8079 144.15 49.6659 144.615 50.0453ZM148.955 43.9828C148.08 44.5489 147.204 45.115 146.329 45.6811C145.895 43.7216 147.374 43.4637 148.955 43.9828ZM228.738 112.183C227.591 112.731 227.305 111.424 226.48 111.367C227.454 110.768 227.454 110.768 228.738 112.183ZM233.401 140.718C233.544 142.597 233.432 144.497 233.683 146.367C233.873 147.791 234.45 149.115 234.511 150.555C234.646 153.707 233.581 156.917 231.432 159.228C229.398 161.414 226.489 163.295 223.743 164.214C222.507 164.627 221.216 165.545 220.014 165.884C218.685 166.26 217.423 165.443 216.326 166.908C215.595 160.623 216.129 154.056 216.072 147.732C216.014 141.394 216.082 135.054 215.01 128.785C214.055 123.201 212.173 116.92 208.703 112.352C207.294 110.497 205.559 108.978 203.729 107.555C202.779 106.818 201.829 106.029 200.772 105.446C199.144 104.549 197.758 104.673 195.988 104.417C193.454 104.052 191.099 103.743 188.557 104.456C186.189 105.12 183.583 105.877 181.462 107.031C179.35 108.181 176.897 108.655 174.704 109.685C173.213 110.385 170.115 112.726 168.46 112.304C166.858 111.896 164.487 109.177 163.464 107.96C162.157 106.403 161.075 104.599 159.916 102.925C159.509 102.337 158.678 101.428 158.573 100.673C158.389 99.363 158.914 99.7912 160.166 99.9376C163.385 100.315 166.412 100.913 169.496 101.926C171.031 102.43 174.033 104.469 175.568 103.247C177.912 101.381 174.351 98.174 173.047 97.0968C170.824 95.2609 168.239 93.8978 165.87 92.2663C163.353 90.533 160.025 88.6874 158.405 86.0183C163.135 87.4147 167.861 89.0138 172.453 90.8144C174.554 91.6379 176.631 92.5081 178.604 93.6033C179.713 94.2183 181.953 95.8822 183.287 95.0851C186.189 93.3531 179.525 88.3223 178.563 87.2944C177.069 85.6969 175.605 84.1146 173.963 82.6653C172.855 81.6874 171.114 80.9997 170.599 79.5574C172.438 80.2233 173.925 81.5271 175.647 82.4129C176.548 82.8772 177.371 83.1443 178.366 83.2865C179.428 83.4383 179.554 83.6074 180.391 84.0293C181.042 84.3586 181.711 84.7981 182.442 85.0219C182.963 85.1817 183.873 85.209 184.329 85.5047C184.562 85.8366 184.802 86.1634 185.05 86.4839C185.328 86.5659 185.601 86.6597 185.871 86.7669C186.275 87.127 186.514 87.6237 186.907 87.9951C189.759 90.692 193.574 92.6221 196.771 94.8815C199.796 97.019 203.006 98.9525 205.912 101.285C209.255 103.97 212.725 106.856 215.569 110.076C217.176 111.895 218.497 113.958 219.847 115.97C220.824 117.427 222.246 118.636 223.091 120.138C224.933 123.413 226.462 126.953 228.445 130.176C230.465 133.459 233.098 136.722 233.401 140.718ZM206.224 159.722C206.775 157.449 209.883 154.795 211.87 153.792C210.869 156.269 208.201 157.958 206.224 159.722ZM211.35 167.651C209.655 171.166 202.206 171.568 203.216 166.366C203.712 163.817 205.814 162.253 207.618 160.585C208.452 159.815 210.495 157.057 211.786 157.502C211.726 159.484 211.609 161.475 211.613 163.457C211.616 164.781 211.949 166.407 211.35 167.651ZM209.197 127.136C209.884 128.68 210.569 129.966 209.293 131.347C208.718 131.97 206.843 133.334 205.995 133.031C203.272 132.06 208.463 127.831 209.197 127.136ZM192.726 113.4C193.382 113.364 194.019 113.462 194.667 113.422C195.313 113.382 195.381 113.267 195.979 113.349C196.042 113.441 196.105 113.533 196.169 113.624C196.25 114.24 196.574 114.307 197.139 113.825C197.925 114 198.436 114.117 199.187 114.542C197.159 116.004 194.691 117.703 192.205 118.194C188.276 118.97 189.362 113.586 192.726 113.4ZM132.492 146.279C132.085 147.099 130.913 145.051 130.623 144.67C131.164 144.668 132.904 145.452 132.492 146.279ZM164.062 124.705C167.115 122.924 170.74 121.359 174.019 120.033C174.596 122.811 171.784 126.397 170.052 128.297C168.652 129.835 166.963 131.429 165.065 132.313C163.012 133.27 160.768 132.849 160.868 130.166C160.905 129.185 161.128 127.607 161.527 126.71C162.042 125.555 163.015 125.315 164.062 124.705ZM122.797 74.1784C123.251 74.1519 128.187 73.5139 128.161 74.1279C128.083 75.9735 123.292 74.5241 122.797 74.1784ZM87.8946 109.819C90.5014 106.602 94.71 103.131 94.7714 98.6354C94.8622 92.0202 87.5211 95.3207 83.8303 95.5957C85.7819 93.6782 95.589 85.6334 89.7881 82.7763C88.1208 81.9549 85.7508 82.7574 84.0776 83.1876C81.109 83.951 78.3491 85.2734 75.4326 86.1932C77.5167 83.975 81.117 81.4539 80.9993 78.0946C80.855 74.0051 77.4982 74.9939 74.5956 75.5937C73.4802 75.8246 68.4974 77.8069 67.5611 76.461C67.2183 75.9681 67.7731 75.3418 67.8905 74.9027C68.0982 74.1263 68.0339 73.855 68.041 73.0617C68.0553 71.4613 69.1186 69.4059 68.2513 67.9174C68.0532 68.2555 67.8833 68.6076 67.742 68.9731C67.456 68.1071 67.6482 67.1881 67.3622 66.3216C74.6087 68.1752 81.9805 69.1897 89.2724 70.7716C92.964 71.5724 96.4382 72.9511 100.18 73.5719C103.954 74.1973 107.663 75.155 111.443 75.7519C114.893 76.2957 118.198 77.2021 121.614 77.8969C124.945 78.5745 128.36 77.0898 131.61 76.3378C138.891 74.6541 146.168 72.9292 153.458 71.2956C161.87 69.4092 170.62 67.7971 178.672 64.6518C178.828 68.844 179.164 73.0281 179.676 77.1916C176.12 75.5104 170.843 73.3183 167.248 76.3264C165.809 77.5297 165.366 79.6075 165.935 81.3749C166.554 83.2987 168.449 84.192 169.7 85.6402C165.893 84.6639 156.072 77.7829 154.324 84.7384C153.089 89.651 159.112 92.824 162.057 95.589C159.132 95.0166 155.216 92.6785 153.499 96.4361C152.015 99.6848 153.802 103.22 155.633 105.899C156.625 107.351 157.741 108.717 158.796 110.123C159.354 110.867 159.899 111.622 160.484 112.344C161.072 113.068 162.181 113.827 162.593 114.606C163.423 116.177 161.749 116.274 160.447 116.841C158.822 117.551 157.427 118.741 155.941 119.69C152.538 121.863 149.563 123.881 145.542 124.575C141.401 125.29 137.415 126.037 133.329 127.034C129.256 128.028 125.931 128.982 121.768 127.698C119.869 127.112 118.323 126.592 116.31 126.702C114.195 126.818 112.958 126.708 111.22 125.398C103.738 119.763 95.6168 115.139 87.8946 109.819ZM74.406 104.162C77.2976 102.711 80.2085 101.253 83.1956 100.007C85.6679 98.974 89.4222 97.7715 92.1287 98.2241C91.3658 100.184 89.9736 101.792 88.48 103.235C87.1594 104.512 85.5093 106.438 83.9115 107.329C82.46 108.137 80.7717 106.856 79.3404 106.32C77.7678 105.73 75.6034 105.456 74.406 104.162ZM75.1328 111.481C76.5737 110.882 79.6706 112.892 80.9812 113.414C83.5569 114.442 86.1466 115.514 88.4165 117.134C85.6448 120.337 82.5059 123.266 78.776 125.323C76.3222 126.677 72.186 128.23 69.871 125.772C66.963 122.683 70.459 116.39 72.5179 113.743C72.586 114.196 72.6546 114.648 72.7231 115.101C73.3801 114.05 73.8815 112.002 75.1328 111.481ZM128.034 138.896C126.236 139.275 125.625 138.933 124.438 137.554C123.636 136.622 122.848 135.654 121.943 134.817C121.02 133.962 118.74 131.9 121.645 133.087C124.293 134.169 126.561 134.71 129.474 134.286C132.804 133.802 135.91 132.393 139.194 131.68C137.393 133.256 135.606 134.846 133.803 136.417C131.897 138.077 130.455 138.386 128.034 138.896ZM128.445 151.565C124.505 154.53 116.574 154.21 119.243 147.686C119.649 146.696 120.216 145.763 120.873 144.919C121.092 144.637 121.481 144.053 121.793 143.864C122.665 143.335 122.423 143.271 123.261 144.153C123.983 144.913 129.632 151.124 128.445 151.565ZM127.277 140.231C127.638 140.114 129.158 139.232 129.505 139.72C129.856 140.214 126.874 141.922 127.277 140.231ZM155.957 185.447C155.071 187.566 147.982 190.635 149.303 186.362C149.888 184.47 150.439 183.037 152.646 182.893C153.92 182.81 156.737 183.58 155.957 185.447ZM168.674 156.724C169.841 155.025 173.695 152.727 175.34 155.261C176.133 156.482 174.209 157.107 173.046 156.794C172.421 156.624 171.91 156.251 171.231 156.223C170.358 156.187 169.505 156.872 168.674 156.724ZM171.768 158.411C170.974 159.214 166.188 163.242 165.413 162.62C166.976 160.386 168.771 157.891 171.768 158.411ZM163.951 199.166C162.289 199.26 163.119 196.755 163.28 195.754C163.682 196.452 165.797 199.061 163.951 199.166ZM168.174 194.677C167.636 193.72 166.188 192.296 166.515 191.065C166.766 190.124 169.027 188.859 169.974 189.399C171.231 190.116 169.408 194.836 168.174 194.677ZM207.61 184.645C206.899 187.094 206.162 186.462 203.933 186.937C201.696 187.413 200.15 189.312 198.182 190.33C198.865 188.885 199.29 187.123 200.435 185.949C200.7 185.678 202.322 185.143 201.398 184.516C200.589 183.967 199.427 185.747 199.08 186.233C197.375 188.62 196.182 191.536 195.197 194.284C194.713 195.633 194.325 197.008 194.096 198.425C193.891 199.688 194.112 201.009 193.904 202.239C193.568 204.22 190.878 204.23 189.26 204.741C187.795 205.203 186.337 205.704 184.816 205.953C183.498 206.169 182.13 205.776 180.853 206.035C179.469 206.317 178.848 207.137 177.276 206.952C175.994 206.801 174.794 206.211 173.495 206.152C172.279 206.098 171.067 206.518 169.858 206.176C168.638 205.83 168.697 205.696 168.975 204.498C169.148 204.822 169.322 205.145 169.495 205.468C169.982 205.086 170.318 203.924 170.616 203.378C171.078 202.533 171.455 202.241 171.283 201.188C171.031 199.633 169.629 198.526 169.311 197.047C168.979 195.504 170.12 194.242 170.795 192.953C171.717 191.19 171.704 189.882 170.932 188.058C171.514 188.212 172.097 188.366 172.68 188.52C171.881 186.786 169.172 187.489 167.814 188.003C167.132 188.26 166.049 189.275 165.315 189.249C164.306 189.214 163.779 187.887 163.346 187.156C162.09 185.042 160.657 182.954 159.173 180.99C158.764 180.451 158.229 180.104 158.37 179.488C158.49 178.966 159.661 178.226 160.041 177.904C161.465 176.7 163.278 176.033 164.615 174.765C166.637 172.85 168.968 171.477 171.035 169.599C173.189 167.643 175.407 165.847 177.651 163.999C179.924 162.126 181.893 159.92 184.149 158.029C184.734 159.089 185.867 162.882 187.162 163.176C188.672 163.518 188.627 161.731 188.552 160.656C188.445 159.123 187.594 157.635 187.5 156.172C187.398 154.607 188.903 153.908 190.039 153.003C191.793 151.606 195.676 148.422 193.589 145.801C191.791 143.544 185.944 147.872 184.332 149.173C182.963 150.279 181.904 151.279 180.362 152.152C179.278 152.764 177.459 155.122 176.173 154.904C174.644 154.646 174.047 152.976 172.177 153.031C170.349 153.084 168.796 154.401 167.663 155.722C165.101 158.71 164.22 162.708 161.885 165.822C160.734 167.357 159.241 168.625 157.992 170.078C156.621 171.672 156.329 173.51 154.977 175.07C151.108 169.915 146.892 165.034 142.811 160.048C140.773 157.558 138.778 155.039 136.784 152.515C136.036 151.568 135.193 150.68 134.509 149.686C133.572 148.325 133.74 147.232 133.372 145.714C133.209 145.041 132.445 144.235 132.65 143.592C132.925 142.728 134.857 142.05 135.553 141.697C138.398 140.252 140.978 138.448 143.631 136.684C148.542 133.417 153.511 130.354 158.736 127.564C158.646 128.766 157.863 130.012 158.389 131.218C158.633 130.524 159.021 127.433 159.947 127.3C159.769 127.326 159.915 131.264 160.059 131.826C160.486 133.504 161.727 134.652 163.501 134.64C166.882 134.618 169.911 130.942 171.788 128.506C173.058 126.857 174.278 124.939 174.725 122.875C175.128 121.021 174.685 119.732 176.612 118.791C180.564 116.861 184.549 115.288 188.776 114.264C188.587 116.086 188.059 118.328 189.715 119.639C191.543 121.085 193.934 119.796 195.655 118.839C197.36 117.892 199.988 115.289 201.99 116.045C203.959 116.788 205.33 119.258 206.432 120.898C207.404 122.344 208.461 123.386 207.336 124.997C206.075 126.803 205.254 128.565 204.244 130.526C203.856 131.28 203.485 131.772 203.76 132.545C203.849 132.795 204.861 134.288 205.136 134.502C206.89 135.867 209.258 133.27 210.511 132.285C210.952 136.529 211.051 140.754 211.229 145.011C211.36 148.13 212.567 151.2 210.008 153.479C207.45 155.758 205.314 158.097 203.755 161.182C202.922 162.831 202.176 164.522 201.275 166.136C200.673 167.214 199.403 168.796 200.18 170.065C201 169.287 201.244 168.104 201.927 167.228C202.336 169.048 202.748 171.068 204.674 171.839C206.89 172.727 209.091 171.191 211.054 170.336C210.35 175.203 208.978 179.932 207.61 184.645ZM205.345 190.239C203.825 193.489 202.451 197.407 199.643 199.8C199.027 200.326 196.407 202.377 195.41 202.033C194.564 201.741 195.03 200.032 195.177 199.299C195.925 195.58 197.22 193.239 200.235 190.867C201.483 189.885 203.086 188.63 204.695 188.387C206.428 188.127 205.929 188.99 205.345 190.239ZM248.235 267.379C244.293 262.018 238.721 257.852 233.455 253.825C231.07 252 228.441 250.632 226.031 248.807C223.307 246.744 220.54 244.754 217.488 243.199C211.702 240.251 205.391 238.196 199.93 234.71C197.268 233.01 194.354 231.366 191.851 229.458C190.751 228.619 189.78 227.546 188.786 226.586C187.863 225.694 185.881 224.398 185.513 223.092C187.05 222.841 187.923 221.35 189.295 221.198C189.747 221.147 192.577 221.896 192.19 220.523C193.217 220.498 193.337 220.482 194.197 220.257C194.553 220.165 194.976 220.31 195.336 220.183C195.888 219.988 196.262 219.426 196.819 219.211C197.215 219.057 198.685 219.228 198.907 219.038C199.516 218.518 198.87 218.564 198.507 217.915C199.689 217.885 200.501 218.482 201.686 217.847C202.047 217.654 202.352 217.208 202.702 216.977C203.322 216.567 203.546 217.202 203.971 216.351C204.368 217.525 204.358 217.201 205.316 216.855C206.27 216.511 206.959 216.263 208.046 216.177C210.643 215.972 213.249 216.287 215.834 216.102C216.779 216.035 217.587 215.82 218.527 215.943C219.354 216.052 219.105 216.628 219.792 215.853C219.952 215.673 219.436 215.18 219.683 214.921C219.792 214.806 220.148 214.887 220.283 214.828C221.492 214.301 221.497 215.037 221.711 215.998C222.42 215.832 223.143 215.681 223.759 215.266C223.448 214.988 222.927 214.682 223.228 214.175C224.25 214.562 224.918 214.383 224.407 215.505C225.435 215.845 225.628 215.402 226.551 215.305C227.098 215.248 227.86 215.587 228.315 215.151C228.812 214.674 228.028 214.157 228.941 213.747C229.129 213.843 229.267 213.986 229.358 214.178C229.851 214.327 229.762 214.521 229.092 214.76C230.887 215.691 230.465 214.65 231.22 213.55C231.394 213.297 232.173 212.508 232.529 212.889C233.068 213.466 231.967 213.65 232.203 214.224C232.612 215.218 234.038 213.943 234.476 213.44C234.808 213.059 234.943 212.329 235.3 212.044C235.796 211.649 236.509 212.26 237.13 212.15C239.967 211.653 242.646 207.839 240.509 205.286C239.935 204.6 239.449 204.736 238.764 204.303C238.088 203.875 237.708 203.134 237.165 202.523C235.926 201.127 234.408 200.082 232.675 199.413C228.655 197.863 224.324 196.732 220.103 195.899C218.148 195.514 216.067 194.924 214.065 194.929C212.886 194.931 211.11 195.848 210.008 195.408C207.865 194.554 211.011 190.183 211.53 188.77C213.056 184.622 214.206 180.198 214.961 175.843C215.109 174.991 215.052 173.887 215.359 173.075C215.711 172.141 215.787 172.273 216.541 172.197C217.904 172.059 219.394 172.774 220.813 172.527C222.386 172.254 224.085 172.381 225.673 171.894C226.403 171.671 227.08 171.428 227.56 170.812C227.711 170.619 227.543 170.451 227.639 170.316C227.668 170.273 228.211 169.687 228.229 169.654C228.223 169.351 228.249 169.05 228.308 168.752C228.858 169.209 228.587 170.167 229.514 170.189C229.679 169.168 229.681 168.962 230.351 168.388C230.301 168.432 230.857 167.959 230.785 168.009C230.819 167.827 230.886 167.657 230.985 167.5C231.299 167.349 231.63 167.268 231.978 167.259C232.703 166.514 232.402 166.117 232.402 165.114C232.987 165.417 233.572 165.721 234.157 166.025C234.298 163.053 236.107 161.426 237.31 159.017C237.822 157.991 238.344 157.189 238.466 155.951C238.537 155.237 238.353 154.607 238.649 153.934C238.917 153.323 239.517 152.994 239.767 152.329C240.261 151.02 239.893 149.349 239.92 147.99C239.957 146.104 240.145 144.225 240.207 142.341C240.328 138.642 239.956 134.841 239.403 131.184C239.138 129.435 238.695 127.739 238.347 126.008C238.061 124.586 237.377 123.252 237.132 121.929C237.031 121.379 237.188 120.886 237.022 120.277C236.803 119.478 236.438 118.692 236.167 117.907C235.533 116.073 234.906 114.243 234.192 112.437C232.81 108.939 231.192 105.545 229.654 102.114C228.176 98.8146 226.951 95.4124 225.035 92.3315C223.149 89.2968 221.117 86.3131 219.038 83.408C216.872 80.3831 214.134 77.7838 212.033 74.7307C208.09 68.9983 202.589 64.2746 196.834 60.3739C184.958 52.3245 172.125 44.2877 157.885 41.5277C155.738 41.1122 153.565 40.8236 151.378 40.7698C150.02 40.7362 147.772 41.3923 146.487 40.933C145.048 40.4182 145.179 38.8018 144.819 37.5341C144.356 35.9039 143.311 34.8364 142.124 33.684C140.875 32.471 139.741 31.0544 138.183 30.2296C136.605 29.3943 134.742 29.0818 132.993 28.8294C131.431 28.6031 129.098 28.8143 127.671 28.1338C126.371 27.5138 127.013 26.8682 128.23 27.399C128.319 26.8623 128.391 26.5157 128.735 26.101C128.908 25.8924 129.724 25.6001 129.743 25.4053C129.766 25.1778 129.082 24.5292 128.984 24.2354C128.774 23.603 128.893 22.727 129.143 22.1334C130.37 23.224 130.725 23.707 132.095 22.6645C132.674 22.2244 132.851 22.0303 133.521 21.8082C133.703 21.7479 134.11 21.9341 134.269 21.8297C134.874 21.431 134.317 21.525 134.605 21.0538C134.533 21.1727 135.041 19.9205 135.017 20.1823C135.079 19.5153 135.276 19.7203 134.873 18.9007C134.084 17.2974 132.076 17.2319 133.1 15.4022C133.502 14.6823 133.857 14.754 133.97 13.7102C134.031 13.149 133.956 12.5056 133.953 11.9348C133.948 10.7673 134.168 9.94991 133.074 9.35548C132.023 8.78376 131.053 9.411 130.626 7.99304C130.179 6.50521 130.629 4.59771 129.017 3.57885C127.839 2.83447 126.139 3.47088 124.837 3.10681C123.533 2.74223 122.334 1.4078 121.01 2.43234C120.07 3.16056 119.571 4.95088 117.799 3.98271C116.999 3.54608 116.559 2.08004 116.054 1.2579C115.251 -0.0525196 114.606 -0.525904 113.37 0.750404C112.608 1.53764 111.001 3.45385 110.902 4.54353C110.794 5.74641 111.844 6.24906 110.526 6.96063C109.216 7.66871 108.48 7.14948 107.416 8.58663C106.361 10.0124 107.178 10.8001 105.955 12.1642C104.427 13.8694 103.614 14.6054 103.635 16.9028C103.65 18.4785 102.258 19.8396 103.07 21.3344C103.98 23.0098 106.637 23.7065 108.247 24.3884C107.71 25.3819 106.972 26.019 107.6 27.0415C108.168 27.9676 109.775 28.1603 110.772 27.992C111.442 27.8789 111.466 27.9807 111.993 27.5092C112.339 27.2009 111.865 26.8156 112.577 26.6448C113.334 26.4619 114.543 27.9462 115.035 28.3176C113.936 29.7438 110.918 30.0105 109.321 30.7331C108.348 31.1743 107.453 31.8266 106.462 32.2207C105.564 32.5782 104.47 32.4954 103.654 33.0485C102.247 34.0041 101.661 36.3712 100.799 37.7629C99.8219 39.3385 98.8751 40.0699 97.0014 40.3972C94.6641 40.8047 92.7819 40.9688 90.602 41.9866C87.94 43.2299 85.3159 44.5422 82.7014 45.8826C78.4845 48.0441 74.567 50.2627 70.6513 52.8768C66.5546 55.6123 62.5699 58.4674 58.6171 61.3253C54.7072 64.1522 51.4249 67.6297 48.0285 71.0479C45.2833 73.8112 42.8741 76.7941 40.1393 79.5566C36.9108 82.8188 34.5361 86.9356 31.5427 90.3959C29.9049 92.289 28.3378 94.1505 27.3102 96.3806C26.4774 98.1887 25.0289 99.9624 24.0619 101.859C22.8266 104.284 21.6574 106.67 20.2702 109.015C19.7012 109.976 19.0248 110.802 18.4242 111.721C17.6545 112.897 17.7 114.033 17.493 115.389C17.2768 115.058 17.0611 114.727 16.8449 114.397C16.4529 115.252 15.9793 116.094 15.6399 116.971C15.4233 117.53 15.4573 118.323 15.2399 118.812C14.9669 119.426 14.6346 119.345 14.2944 119.856C13.9305 120.403 13.8132 121.137 13.43 121.724C11.7725 124.26 11.1348 127.476 10.2831 130.369C9.14077 134.25 9.32079 138.71 9.38304 142.712C9.44907 146.939 9.67998 151.166 10.3155 155.348C10.8913 159.135 12.122 162.768 14.0487 166.089C15.7278 168.982 18.0427 170.668 21.0084 172.151C22.3703 172.831 23.6342 172.621 25.0634 172.73C26.6293 172.849 27.6972 173.274 29.3539 172.9C30.1484 172.72 30.5249 172.142 31.1562 171.949C31.5469 171.83 31.7576 172.024 32.1328 171.979C32.6695 171.914 33.7858 171.651 34.3679 171.714C36.1794 171.912 35.8753 174.65 36.0536 176.048C36.3279 178.202 36.5285 180.379 36.8986 182.519C37.6763 187.02 39.3558 191.225 40.3479 195.648C35.7483 196.209 31.8026 197.068 27.4915 198.809C23.1665 200.555 18.7935 201.148 14.2418 202.016C9.98365 202.828 5.88786 204.345 2.47933 207.095C0.881892 208.383 -0.777792 209.89 0.395259 212.012C1.14561 213.368 2.49783 213.713 3.665 214.502C3.90095 214.203 3.21874 213.571 3.09382 213.395C4.07508 213.597 4.04522 214.055 4.76192 214.454C5.38819 214.802 5.9009 214.79 6.58648 215.036C8.26046 215.637 9.08315 217.138 10.7378 217.559C11.2585 217.691 11.9394 218.009 12.4715 218.099C13.1112 218.206 13.5899 217.927 14.238 218.045C14.5875 218.276 14.9661 218.44 15.3724 218.539C15.639 218.415 15.9023 218.284 16.1618 218.147C17.093 218.244 17.668 218.829 18.4247 219.31C18.4751 218.704 18.4024 218.075 18.9761 217.679C19.2002 218.268 18.8381 218.642 19.4497 219.047C20.2244 219.562 21.2418 218.92 21.9354 218.594C22.1318 220.554 26.6688 220.439 28.1068 220.411C30.0984 220.372 32.0878 219.582 34.097 220.023C35.122 220.248 36.216 220.482 37.2364 220.774C38.4649 221.125 39.9501 221.439 41.1593 221.882C41.6405 222.058 42.2293 222.622 42.7412 222.584C43.1487 222.554 43.2581 221.953 43.7325 221.97C44.2692 221.99 44.4496 222.588 44.914 222.768C45.6096 223.036 46.249 222.525 46.9097 222.783C47.1474 222.876 47.4691 223.274 47.7732 223.404C48.2346 223.6 49.1481 223.603 49.6617 223.698C50.3898 223.833 51.0417 223.742 51.6654 223.787C52.1685 223.823 52.1575 224.161 52.3981 224.183C52.6744 224.208 53.1552 223.259 53.5262 223.12C54.0662 222.917 55.0466 223.4 55.5976 223.485C51.6066 228.894 46.7945 233.676 41.5782 237.862C35.9519 242.379 30.1901 246.889 24.1566 250.851C18.6783 254.448 13.3754 257.558 9.12816 262.636C5.54675 266.917 -0.154041 271.498 0.72459 277.703C1.6028 283.903 8.33532 286.427 13.7299 287.61C20.515 289.099 27.4995 288.5 34.3027 289.337C37.204 289.694 40.4274 289.503 43.3481 289.199C46.7974 288.84 49.7538 286.589 52.7194 284.961C58.0535 282.033 62.6136 278.115 67.8677 275.096C74.4463 271.315 80.9555 267.309 88.1675 264.777C91.5226 263.599 94.9766 262.254 97.6832 259.832C98.0861 259.471 98.386 258.927 98.8411 258.63C99.6146 258.125 99.8219 258.637 100.271 258.484C100.616 258.366 100.951 257.993 101.25 257.881C102.007 257.597 102.344 257.714 103.192 257.714C102.465 257.295 101.799 256.214 102.554 255.333C103.846 253.825 104.069 256.236 104.554 256.794C104.966 256.265 104.808 255.795 104.703 255.194C105.05 255.423 105.399 255.653 105.746 255.883C105.507 254.719 105.735 253.648 106.351 252.634C106.919 251.7 107.06 251.832 107.216 250.537C108.981 252.149 109.326 248.238 109.485 246.812C109.639 245.429 109.487 244.437 110.396 243.228C111.372 241.93 112.857 241.109 114.096 240.101C116.053 238.507 118.207 236.495 120.914 238.023C123.051 239.23 124.214 242.188 126.219 243.707C127.435 244.63 128.718 244.722 129.493 246.152C130.12 247.308 130.324 248.692 130.916 249.878C132.349 252.755 134.412 256.046 136.766 258.253C138.958 260.307 141.771 260.296 144.335 261.57C146.873 262.831 149.511 264.198 152.198 265.112C155.133 266.11 158.297 266.534 161.154 267.744C162.624 268.366 163.938 269.303 165.421 269.899C167.02 270.541 168.705 270.993 170.325 271.582C176.745 273.914 183.027 276.773 189.772 278.066C192.763 278.639 195.532 280.196 198.545 280.524C199.838 280.665 200.892 280.843 202.157 281.166C204.141 281.673 203.721 281.943 204.452 283.597C205.654 286.321 208.591 284.708 210.855 284.776C214.478 284.885 218.046 284.3 221.664 284.272C227.991 284.223 234.082 283.51 240.202 281.433C246.346 279.348 253.342 274.323 248.235 267.379Z" fill="black"/>
<path fill-rule="evenodd" clip-rule="evenodd" d="M175.104 54.5831C175.191 54.6698 175.394 54.7223 175.104 54.5831V54.5831Z" fill="black"/>
<path fill-rule="evenodd" clip-rule="evenodd" d="M63.6631 170.584C65.0372 169.191 70.8835 169.472 71.3255 171.964C71.818 174.744 66.5942 178.943 64.6822 180.121C62.2221 181.636 59.219 181.92 59.6552 178.116C59.9849 175.242 61.7064 172.566 63.6631 170.584ZM68.4911 167.717C68.6694 168.487 67.3555 168.225 66.9938 168.042C66.823 167.692 68.3128 166.944 68.4911 167.717ZM58.4094 172.816C59.5753 172.92 60.9115 171.05 61.7914 170.412C62.18 171.013 59.6161 174.317 59.3338 175.071C58.6293 176.954 58.2373 179.334 59.198 181.213C62.0051 186.703 69.1889 178.863 70.9857 176.125C72.2429 174.21 73.1131 171.834 71.3373 169.958C70.7051 169.289 69.6608 169.103 69.0736 168.468C68.3006 167.633 68.9088 166.554 67.3547 166.736C66.2821 166.862 64.9947 167.829 63.952 168.18C62.6952 168.601 61.5655 169.039 60.4686 169.82C60.2213 169.996 56.9688 172.686 58.4094 172.816Z" fill="black"/>
<path fill-rule="evenodd" clip-rule="evenodd" d="M140.825 174.658C140.092 178.43 136.354 182.3 132.421 182.45C128.505 182.599 127.237 178.496 127.928 175.225C128.518 172.436 130.929 167.59 134.368 168.124C137.072 168.543 141.453 171.425 140.825 174.658ZM138.331 168.354C135.848 166.433 132.417 165.543 129.539 167.068C128.595 167.568 124.828 169.773 125.974 171.265C127.52 170.067 128.854 168.405 130.862 168.007C130.524 169.564 128.596 170.965 127.916 172.481C127.121 174.252 126.687 176.279 126.817 178.226C127.049 181.69 129.369 184.382 132.961 183.906C136.25 183.469 139.126 180.949 140.694 178.115C142.789 174.331 141.609 170.891 138.331 168.354Z" fill="black"/>
<path fill-rule="evenodd" clip-rule="evenodd" d="M115.27 183.233C113.502 185.85 110.806 188.313 107.689 189.122C103.653 190.168 104.787 186.833 105.993 184.44C107.059 182.324 108.888 178.684 111.674 178.704C112.619 178.71 114.38 179.167 115.209 179.673C116.842 180.669 116.201 181.855 115.27 183.233ZM111.504 177.479C112.138 176.772 114.948 173.742 115.324 176.104C116.131 175.168 115.495 174.392 114.462 174.294C113.216 174.175 111.853 175.562 110.954 176.251C109.104 177.67 107.679 179.122 106.453 181.111C105.1 183.303 101.653 188.257 104.67 190.432C107.931 192.784 112.678 188.441 114.721 186.202C116.027 184.769 117.757 182.666 117.26 180.566C116.65 177.986 113.649 177.715 111.504 177.479Z" fill="black"/>
<path fill-rule="evenodd" clip-rule="evenodd" d="M97.5876 135.288C95.7626 137.37 92.0554 140.404 89.0006 140.047C86.2146 139.721 87.3023 136.594 88.2881 135.08C89.7695 132.806 91.7539 130.67 94.6211 130.546C95.8589 130.492 97.4631 130.518 98.4216 131.455C99.731 132.735 98.552 134.188 97.5876 135.288ZM97.3937 129.503C95.2558 128.764 94.4158 128.483 92.3381 129.657C90.6696 130.6 89.1899 131.933 88.045 133.446C86.3315 135.712 84.6033 140.807 89.0032 141.444C93.8295 142.144 105.31 132.24 97.3937 129.503Z" fill="black"/>
<path fill-rule="evenodd" clip-rule="evenodd" d="M103.972 142.503C102.583 143.922 100.85 145.079 98.8717 145.474C99.7087 143.607 101.577 139.526 103.793 138.958C104.814 138.696 105.978 139.039 105.894 140.202C105.833 141.043 104.519 141.944 103.972 142.503ZM105.759 137.567C104.609 136.991 104.972 136.597 103.635 137.05C102.581 137.405 101.251 138.023 100.373 138.735C99.8946 139.123 98.4035 140.501 98.5861 141.201C98.9167 142.475 100.029 140.523 100.321 140.148C100.822 140.556 98.2601 144.222 98.1079 144.826C97.5396 147.072 99.3032 147.31 101.031 146.574C103.362 145.584 110.264 139.824 105.759 137.567Z" fill="black"/>
<path fill-rule="evenodd" clip-rule="evenodd" d="M139.93 198.02C140.102 196.531 140.347 194.956 141.714 194.12C142.945 193.366 144.221 193.475 144.403 195.021C144.573 196.457 143.166 199.007 142.028 199.79C140.443 200.881 140.138 199.522 139.93 198.02ZM141.966 201.409C145.219 199.506 147.27 190.775 141.273 193.222C137.865 194.612 139.118 203.075 141.966 201.409Z" fill="black"/>
<path fill-rule="evenodd" clip-rule="evenodd" d="M114.181 165.206C114.694 164.155 115.281 163.806 116.321 163.345C115.628 164 114.919 164.606 114.181 165.206ZM114.932 162.615C114.195 163.354 112.506 164.481 112.743 165.751C112.959 166.91 113.844 166.844 114.647 166.483C116.331 165.726 117.268 162.412 119.029 162.101C117.076 160.863 116.62 160.921 114.932 162.615Z" fill="black"/>
<path fill-rule="evenodd" clip-rule="evenodd" d="M115.19 96.7991C115.284 100.328 115.367 103.857 115.444 107.386C115.472 108.627 115.176 110.395 115.548 111.583C115.712 112.106 117.199 114.375 117.726 114.522C119.571 115.035 118.912 110.409 118.925 109.27C118.97 105.427 118.914 101.58 118.898 97.737C118.889 95.7564 119.449 79.1503 116.879 79.2315C116.436 79.2454 115.346 81.144 115.182 81.5246C114.665 82.7199 114.855 84.4919 114.867 85.7663C114.902 89.4424 115.093 93.1235 115.19 96.7991Z" fill="black"/>
<path fill-rule="evenodd" clip-rule="evenodd" d="M130.75 107.087C130.894 108.063 130.818 109.69 131.917 110.196C132.873 110.636 133.239 110.112 133.596 109.295C134.418 107.414 134.122 104.538 134.107 102.593C134.076 98.7389 133.642 94.9009 133.342 91.0613C133.21 89.3764 133.484 87.6843 133.274 85.9211C133.181 85.1477 133.089 82.0352 131.655 82.1803C130.358 82.3111 130.475 85.5729 130.404 86.4132C129.816 93.4095 129.714 100.103 130.75 107.087Z" fill="black"/>
<path fill-rule="evenodd" clip-rule="evenodd" d="M191.955 187.426C191.406 190.235 182.439 200.02 180.181 194.548C178.842 191.301 181.745 187.766 184.009 185.887C185.411 184.724 187.161 183.582 189.071 183.935C190.693 184.234 192.304 185.641 191.955 187.426ZM187.325 182.386C186.692 182.535 181.398 186.253 181.35 186.204C180.89 185.742 184.229 180.765 184.572 180.33C187.403 176.744 189.282 179.459 191.052 182.278C190.675 180.595 189.638 178.15 187.905 177.438C185.716 176.539 184.009 178.758 182.957 180.353C181.469 182.608 180.648 185.056 179.822 187.601C179.427 188.814 178.978 189.915 178.31 191.009C177.651 192.088 176.498 193.279 176.668 194.644C177.605 194.124 178.103 193.104 178.693 192.264C179.352 192.531 179.125 194.63 179.259 195.165C179.595 196.508 180.513 197.559 181.932 197.79C184.577 198.22 187.433 195.773 189.201 194.111C191.065 192.36 193.071 189.959 193.055 187.263C193.038 184.447 190.268 181.689 187.325 182.386Z" fill="black"/>
<path fill-rule="evenodd" clip-rule="evenodd" d="M194.496 137.237C192.996 139.534 190.362 142.287 187.576 142.821C185.53 143.213 184.181 141.697 185.003 139.651C185.697 137.921 188.062 136.829 189.612 136.068C190.841 135.464 196.573 134.059 194.496 137.237ZM193.392 133.48C190.318 133.364 187.838 135.587 185.546 137.361C186.064 135.323 187.235 133.106 188.884 131.78C191.128 129.975 193.255 131.096 195.618 131.998C195.035 130.159 192.419 129.497 190.752 129.757C188.645 130.086 187.129 131.885 186.064 133.625C184.793 135.701 184.358 138.148 182.862 140.095C182.177 140.987 177.935 144.323 178.896 145.686C180.48 144.004 182.064 142.322 183.649 140.64C184.06 142.628 184.512 144.892 187.05 144.698C189.077 144.543 191.389 142.821 192.871 141.504C194.784 139.803 198.551 133.675 193.392 133.48Z" fill="black"/>
<path fill-rule="evenodd" clip-rule="evenodd" d="M150.328 153.093C149.026 153.691 146.159 154.505 145.431 152.706C144.419 150.207 147.674 145.825 149.223 144.16C150.176 143.136 150.822 142.606 152.151 143.268C153.212 143.798 154.771 145.302 155.177 146.459C156.051 148.941 152.365 152.156 150.328 153.093ZM153.316 141.092C154.376 141.331 154.506 142.678 153.18 142.161C152.186 141.773 151.955 140.785 153.316 141.092ZM154.647 142.989C154.251 141.781 155.057 139.886 153.106 139.799C152.001 139.75 149.977 140.873 149.012 141.33C147.675 141.962 146.416 142.929 145.718 144.289C145.071 145.55 145.533 145.882 146.519 144.836C146.64 144.918 144.289 150.981 144.268 151.588C144.177 154.364 146.142 156.192 148.902 155.7C151.438 155.248 153.724 153.173 155.12 151.08C155.826 150.02 156.406 148.807 156.459 147.509C156.54 145.518 155.213 144.718 154.647 142.989Z" fill="black"/>
<path fill-rule="evenodd" clip-rule="evenodd" d="M170.444 137.455C168.224 136.441 165.744 139.91 166.814 141.971C168.218 144.673 175.067 139.568 170.444 137.455ZM167.796 141.333C167.334 140.511 170.471 139.3 170.967 139.28C170.719 139.733 168.43 142.46 167.796 141.333Z" fill="black"/>
<path fill-rule="evenodd" clip-rule="evenodd" d="M19.3247 135.471C19.2006 134.592 17.2331 135.867 17.2444 136.432C17.57 135.781 19.583 137.3 19.3247 135.471Z" fill="black"/>
<path fill-rule="evenodd" clip-rule="evenodd" d="M126.939 69.1345C129.444 68.9503 126.252 56.3122 124.427 57.4297C122.447 58.641 124.64 69.3032 126.939 69.1345Z" fill="black"/>
<path fill-rule="evenodd" clip-rule="evenodd" d="M131.617 63.2332C133.964 63.5692 133.591 58.1801 132.329 57.2157C129.999 55.4353 128.768 62.8252 131.617 63.2332Z" fill="black"/>
</g>
<defs>
<clipPath id="clip0_137_1913">
<rect width="250" height="289.53" fill="white"/>
</clipPath>
</defs>
</svg>
