<svg width="32" height="32" viewBox="0 0 32 32" fill="none" xmlns="http://www.w3.org/2000/svg">
<g id="ion:library-outline">
<path id="Vector" d="M5 6H3C2.44772 6 2 6.44772 2 7V28C2 28.5523 2.44772 29 3 29H5C5.55228 29 6 28.5523 6 28V7C6 6.44772 5.55228 6 5 6Z" stroke="black" stroke-width="2" stroke-linejoin="round"/>
<path id="Vector_2" d="M7 14H15M7 25H15" stroke="black" stroke-width="2" stroke-linecap="round" stroke-linejoin="round"/>
<path id="Vector_3" d="M14 10H8C7.44772 10 7 10.4477 7 11V28C7 28.5523 7.44772 29 8 29H14C14.5523 29 15 28.5523 15 28V11C15 10.4477 14.5523 10 14 10Z" stroke="black" stroke-width="2" stroke-linejoin="round"/>
<path id="Vector_4" d="M21 3H17C16.4477 3 16 3.44772 16 4V28C16 28.5523 16.4477 29 17 29H21C21.5523 29 22 28.5523 22 28V4C22 3.44772 21.5523 3 21 3Z" stroke="black" stroke-width="2" stroke-linejoin="round"/>
<path id="Vector_5" d="M26.4037 6.00687L23.8787 6.27249C23.1837 6.34562 22.68 6.99562 22.7581 7.71624L24.9406 27.8156C25.0194 28.5362 25.6512 29.0656 26.3462 28.9931L28.8712 28.7275C29.5662 28.6544 30.07 28.0044 29.9919 27.2837L27.8125 7.18749C27.7306 6.46374 27.0987 5.93374 26.4037 6.00687Z" stroke="black" stroke-width="2" stroke-linejoin="round"/>
</g>
</svg>
