<?xml version="1.0" encoding="UTF-8"?>
<svg id="Capa_2" data-name="Capa 2" xmlns="http://www.w3.org/2000/svg" viewBox="0 0 1644.09 1427.72">
  <defs>
    <style>
      .cls-1 {
        fill: #916e29;
      }

      .cls-1, .cls-2 {
        stroke-width: 0px;
      }

      .cls-2 {
        fill: #006178;
      }
    </style>
  </defs>
  <g id="Capa_1-2" data-name="Capa 1">
    <g>
      <g>
        <path class="cls-1" d="m1082.89,111.52C1015.83,42.31,923.72,0,822.05,0s-194.29,42.31-260.84,111.52c-67.07,68.66-108.08,163.71-108.08,269.17,0,150.54,172.5,431.79,293.87,629.02,28.74,47.25,54.81,89.54,75.05,124.15,19.69-34.61,45.78-76.9,75.05-124.15,120.85-197.23,293.86-478.48,293.86-629.02,0-105.47-41.52-200.51-108.07-269.17Zm-260.84,517.47c-143.28,0-259.43-119.87-259.43-267.73s116.15-267.73,259.43-267.73,259.43,119.87,259.43,267.73-116.15,267.73-259.43,267.73Z"/>
        <g>
          <path class="cls-2" d="m840.09,390.47c-5.6,4.4-12.57,7.04-20.15,7.04-18.4,0-33.32-15.4-33.32-34.39,0-6.11,1.56-11.84,4.27-16.81l-28.35-25.44c-26.87,71.38-53.73,142.75-80.6,214.13,62.85-39.08,125.7-78.16,188.55-117.24l-30.4-27.28Z"/>
          <path class="cls-2" d="m762.14,320.51l28.75,25.8c5.71-10.48,16.57-17.58,29.05-17.58,18.4,0,33.32,15.4,33.32,34.39,0,11.17-5.18,21.07-13.18,27.35l30,26.92c30.69-76.62,61.38-153.25,92.07-229.88-66.67,44.33-133.35,88.66-200.02,132.99Z"/>
        </g>
      </g>
      <g>
        <g>
          <path class="cls-2" d="m810.07,1416.08s-385.6-161.22-706.29,11.6l-4.9-150.66s32.62-9.02,67.69-6.7l7.3,80.83s299.37-125.51,636.21,64.93"/>
          <path class="cls-2" d="m810.07,1416.08S430.15,1144.53,0,1263.48L42.17,477.27s20.47-2.27,82.48,3.6l-36.17,666.45s463.62,3.29,721.6,268.76"/>
          <path class="cls-2" d="m810.07,1416.08c-253.54-370.62-667.34-349.49-667.34-349.49l35.04-654.2c33.95.85,65.84,4.67,95.64,10.7,52.16,10.55,97.95,27.86,137.29,47.89l-8.63,99.25s-56.55-64.22-145.69-46.97l-28.56,453.33s333.66-17.76,582.25,439.5Z"/>
        </g>
        <g>
          <path class="cls-2" d="m833.84,1415.27s385.79-160.76,706.28,12.45l5.08-150.66s-32.61-9.06-67.68-6.78l-7.4,80.82s-299.21-125.87-636.29,64.16"/>
          <path class="cls-2" d="m833.84,1415.27s380.25-271.1,810.26-151.63l-41.22-786.26s-20.47-2.29-82.48,3.51l35.37,666.49s-463.62,2.73-721.92,267.89"/>
          <path class="cls-2" d="m833.84,1415.27c253.98-370.31,667.77-348.69,667.77-348.69l-34.25-654.24c-33.95.81-65.84,4.59-95.66,10.58-52.17,10.48-97.98,27.74-137.34,47.72l8.51,99.26s56.62-64.15,145.75-46.79l28.01,453.36s-333.64-18.16-582.78,438.8Z"/>
        </g>
      </g>
    </g>
  </g>
</svg>