<svg width="220" height="247" viewBox="0 0 220 247" fill="none" xmlns="http://www.w3.org/2000/svg">
<path d="M108.834 155.81C108.834 155.81 71.3085 140.12 40.0997 156.939L39.6228 142.277C39.6228 142.277 42.7973 141.399 46.2102 141.625L46.9207 149.491C46.9207 149.491 76.0547 137.276 108.835 155.81" fill="#006078"/>
<path d="M108.834 155.81C108.834 155.81 71.8612 129.383 30 140.959L34.1039 64.4468C34.1039 64.4468 36.096 64.2259 42.1306 64.7971L38.6107 129.655C38.6107 129.655 83.7291 129.975 108.835 155.81" fill="#006078"/>
<path d="M108.834 155.81C84.1602 119.742 43.8901 121.798 43.8901 121.798L47.3001 58.1328C50.6041 58.2155 53.7075 58.5873 56.6076 59.1741C61.6837 60.2008 66.1399 61.8854 69.9684 63.8347L69.1285 73.4934C69.1285 73.4934 63.6252 67.2437 54.9503 68.9224L52.1709 113.039C52.1709 113.039 84.6419 111.311 108.834 155.811V155.81Z" fill="#006078"/>
<path d="M111.147 155.731C111.147 155.731 148.692 140.086 179.881 156.942L180.375 142.28C180.375 142.28 177.202 141.399 173.789 141.621L173.069 149.486C173.069 149.486 143.95 137.236 111.146 155.73" fill="#006078"/>
<path d="M111.147 155.731C111.147 155.731 148.153 129.348 190 140.974L185.989 64.4574C185.989 64.4574 183.997 64.2346 177.962 64.799L181.404 129.66C181.404 129.66 136.286 129.926 111.148 155.731" fill="#006078"/>
<path d="M111.147 155.731C135.864 119.693 176.133 121.797 176.133 121.797L172.8 58.1279C169.496 58.2068 166.393 58.5746 163.491 59.1576C158.414 60.1774 153.956 61.8571 150.125 63.8016L150.953 73.4613C150.953 73.4613 156.463 67.2184 165.137 68.9078L167.863 113.028C167.863 113.028 135.394 111.26 111.148 155.731H111.147Z" fill="#006078"/>
<path d="M135.384 28.8529C128.858 22.1175 119.894 18 110 18C100.106 18 91.0921 22.1175 84.6156 28.8529C78.0885 35.5347 74.0975 44.7847 74.0975 55.0479C74.0975 69.6981 90.8848 97.0687 102.696 116.263C105.493 120.861 108.03 124.976 110 128.345C111.916 124.976 114.455 120.861 117.304 116.263C129.065 97.0687 145.901 69.6981 145.901 55.0479C145.901 44.7838 141.861 35.5347 135.384 28.8529ZM110 79.2118C96.0563 79.2118 84.7528 67.5464 84.7528 53.157C84.7528 38.7676 96.0563 27.1021 110 27.1021C123.944 27.1021 135.247 38.7676 135.247 53.157C135.247 67.5464 123.944 79.2118 110 79.2118Z" fill="#906E2A"/>
<path d="M111.756 55.9998C111.211 56.4279 110.532 56.6849 109.795 56.6849C108.004 56.6849 106.552 55.1862 106.552 53.3381C106.552 52.7435 106.704 52.1859 106.968 51.7022L104.209 49.2264C101.594 56.173 98.9798 63.1185 96.3649 70.0651C102.481 66.2619 108.598 62.4587 114.714 58.6556L111.756 56.0007V55.9998Z" fill="#006078"/>
<path d="M104.17 49.1913L106.968 51.7021C107.523 50.6822 108.58 49.9913 109.795 49.9913C111.585 49.9913 113.037 51.4899 113.037 53.338C113.037 54.425 112.533 55.3885 111.755 55.9996L114.674 58.6194C117.661 51.163 120.648 43.7055 123.634 36.248C117.146 40.5621 110.657 44.8762 104.169 49.1903L104.17 49.1913Z" fill="#006078"/>
<path d="M30.8129 218.462C29.7383 218.462 28.7503 218.376 27.8489 218.202C26.9823 218.064 26.1849 217.856 25.4569 217.578C24.7289 217.301 24.0876 217.006 23.5329 216.694C22.9783 216.348 22.5276 215.984 22.1809 215.602C21.6956 215.152 21.3316 214.666 21.0889 214.146C20.8463 213.626 20.7249 213.054 20.7249 212.43C20.7249 210.177 20.7249 207.958 20.7249 205.774C20.7249 203.556 20.7249 201.354 20.7249 199.17C20.7249 196.952 20.7249 194.733 20.7249 192.514C20.7249 190.261 20.7249 187.99 20.7249 185.702H26.4449L25.8729 187.366C26.3929 187.852 26.7743 188.51 27.0169 189.342C27.2596 190.14 27.3809 191.058 27.3809 192.098C27.3809 193.762 27.3809 195.426 27.3809 197.09C27.3809 198.72 27.3809 200.349 27.3809 201.978C27.3809 203.608 27.3809 205.272 27.3809 206.97C27.3809 208.634 27.3809 210.316 27.3809 212.014C27.6583 212.118 27.9356 212.205 28.2129 212.274C28.5249 212.344 28.8716 212.413 29.2529 212.482C29.6343 212.517 30.0676 212.534 30.5529 212.534C31.9049 212.534 33.1183 212.361 34.1929 212.014C35.2676 211.633 36.0996 211.044 36.6889 210.246C37.3129 209.414 37.6249 208.392 37.6249 207.178V206.658C37.6249 205.826 37.4169 205.081 37.0009 204.422C36.6196 203.729 35.9783 203.122 35.0769 202.602C34.1756 202.048 32.9449 201.562 31.3849 201.146H28.7329V199.794L39.0809 200.366V201.302C40.5716 201.892 41.7503 202.741 42.6169 203.85C43.4836 204.96 43.9169 206.19 43.9169 207.542V208.01C43.9169 210.264 43.3276 212.17 42.1489 213.73C40.9703 215.29 39.3929 216.469 37.4169 217.266C35.4409 218.064 33.2396 218.462 30.8129 218.462ZM17.9689 181.542C20.3609 181.126 22.7356 180.849 25.0929 180.71C27.4503 180.572 29.6863 180.502 31.8009 180.502C33.8809 180.502 35.7009 180.814 37.2609 181.438C38.8209 182.062 40.1209 182.894 41.1609 183.934C42.2356 184.94 43.0329 186.066 43.5529 187.314C44.0729 188.562 44.3329 189.828 44.3329 191.11V191.682C44.3329 193.45 43.9689 195.045 43.2409 196.466C42.5476 197.888 41.5596 199.118 40.2769 200.158C38.9943 201.164 37.5036 201.944 35.8049 202.498C34.1409 203.053 32.3383 203.33 30.3969 203.33C29.8076 203.33 29.2876 203.261 28.8369 203.122C28.3863 202.984 28.0049 202.758 27.6929 202.446L26.3929 202.55V197.818C26.8783 198.096 27.3116 198.286 27.6929 198.39C28.0743 198.494 28.6289 198.546 29.3569 198.546C31.1596 198.546 32.7023 198.286 33.9849 197.766C35.2676 197.246 36.2556 196.484 36.9489 195.478C37.6769 194.438 38.0409 193.156 38.0409 191.63V191.162C38.0409 190.434 37.9716 189.793 37.8329 189.238C37.7289 188.684 37.5383 188.164 37.2609 187.678C36.4289 187.366 35.4929 187.141 34.4529 187.002C33.4476 186.864 32.2863 186.794 30.9689 186.794C29.0969 186.794 27.3809 186.881 25.8209 187.054C24.2609 187.228 22.9609 187.401 21.9209 187.574C20.8809 187.748 20.1703 187.834 19.7889 187.834C19.0956 187.834 18.5756 187.505 18.2289 186.846C17.9169 186.188 17.7609 185.165 17.7609 183.778C17.7609 183.362 17.7783 182.981 17.8129 182.634C17.8476 182.253 17.8996 181.889 17.9689 181.542ZM63.3446 180.502C66.118 180.502 68.4406 181.196 70.3126 182.582C72.1846 183.969 73.606 186.014 74.5766 188.718C75.5473 191.422 76.0326 194.785 76.0326 198.806V199.846C76.0326 203.902 75.5126 207.352 74.4726 210.194C73.4326 213.037 71.9593 215.221 70.0526 216.746C68.1806 218.237 65.962 218.982 63.3966 218.982C60.554 218.982 58.162 218.324 56.2206 217.006C54.314 215.654 52.8753 213.661 51.9046 211.026C50.934 208.392 50.4486 205.15 50.4486 201.302V200.262C50.4486 196.068 50.9686 192.497 52.0086 189.55C53.0486 186.604 54.5393 184.368 56.4806 182.842C58.422 181.282 60.71 180.502 63.3446 180.502ZM56.7406 202.186C56.7406 204.613 56.966 206.641 57.4166 208.27C57.8673 209.9 58.3873 211.13 58.9766 211.962C59.6353 212.24 60.242 212.448 60.7966 212.586C61.386 212.69 62.062 212.742 62.8246 212.742C64.35 212.742 65.6326 212.205 66.6726 211.13C67.7126 210.021 68.4753 208.426 68.9606 206.346C69.4806 204.232 69.7406 201.684 69.7406 198.702V197.87C69.7406 196.172 69.6366 194.664 69.4286 193.346C69.2206 192.029 68.9433 190.902 68.5966 189.966C68.25 188.996 67.8686 188.198 67.4526 187.574C66.794 187.228 66.1873 187.002 65.6326 186.898C65.1126 186.794 64.454 186.742 63.6566 186.742C62.1313 186.742 60.8486 187.314 59.8086 188.458C58.7686 189.602 57.9886 191.266 57.4686 193.45C56.9833 195.634 56.7406 198.269 56.7406 201.354V202.186ZM94.5243 180.502C97.2976 180.502 99.6203 181.196 101.492 182.582C103.364 183.969 104.786 186.014 105.756 188.718C106.727 191.422 107.212 194.785 107.212 198.806V199.846C107.212 203.902 106.692 207.352 105.652 210.194C104.612 213.037 103.139 215.221 101.232 216.746C99.3603 218.237 97.1416 218.982 94.5763 218.982C91.7336 218.982 89.3416 218.324 87.4003 217.006C85.4936 215.654 84.055 213.661 83.0843 211.026C82.1136 208.392 81.6283 205.15 81.6283 201.302V200.262C81.6283 196.068 82.1483 192.497 83.1883 189.55C84.2283 186.604 85.719 184.368 87.6603 182.842C89.6016 181.282 91.8896 180.502 94.5243 180.502ZM87.9203 202.186C87.9203 204.613 88.1456 206.641 88.5963 208.27C89.047 209.9 89.567 211.13 90.1563 211.962C90.815 212.24 91.4216 212.448 91.9763 212.586C92.5656 212.69 93.2416 212.742 94.0043 212.742C95.5296 212.742 96.8123 212.205 97.8523 211.13C98.8923 210.021 99.655 208.426 100.14 206.346C100.66 204.232 100.92 201.684 100.92 198.702V197.87C100.92 196.172 100.816 194.664 100.608 193.346C100.4 192.029 100.123 190.902 99.7763 189.966C99.4296 188.996 99.0483 188.198 98.6323 187.574C97.9736 187.228 97.367 187.002 96.8123 186.898C96.2923 186.794 95.6336 186.742 94.8363 186.742C93.311 186.742 92.0283 187.314 90.9883 188.458C89.9483 189.602 89.1683 191.266 88.6483 193.45C88.163 195.634 87.9203 198.269 87.9203 201.354V202.186ZM127.316 198.65C128.356 200.418 129.413 202.204 130.488 204.006C131.597 205.809 132.672 207.594 133.712 209.362C134.267 210.298 134.821 210.974 135.376 211.39C135.931 211.806 136.503 212.014 137.092 212.014C137.577 212.014 137.993 211.962 138.34 211.858C138.687 211.72 138.981 211.546 139.224 211.338H139.536C139.571 211.581 139.605 211.824 139.64 212.066C139.709 212.309 139.744 212.569 139.744 212.846C139.779 213.089 139.796 213.366 139.796 213.678C139.796 213.956 139.796 214.268 139.796 214.614C139.796 215.377 139.709 216.053 139.536 216.642C139.363 217.232 139.103 217.7 138.756 218.046C138.548 218.254 138.305 218.428 138.028 218.566C137.751 218.705 137.421 218.809 137.04 218.878C136.693 218.948 136.312 218.982 135.896 218.982C135.099 218.982 134.353 218.844 133.66 218.566C132.967 218.289 132.308 217.838 131.684 217.214C131.06 216.556 130.436 215.706 129.812 214.666C129.257 213.834 128.737 213.02 128.252 212.222C127.767 211.39 127.299 210.558 126.848 209.726C126.432 208.86 125.999 207.958 125.548 207.022C125.132 206.086 124.716 205.081 124.3 204.006H122.636L127.316 198.65ZM133.244 181.022C134.492 181.022 135.515 181.161 136.312 181.438C137.109 181.716 137.716 182.062 138.132 182.478C138.548 182.894 138.756 183.38 138.756 183.934C138.756 184.489 138.704 185.078 138.6 185.702C138.496 186.292 138.305 186.985 138.028 187.782C137.751 188.58 137.335 189.568 136.78 190.746C136.295 191.89 135.671 193.017 134.908 194.126C134.18 195.201 133.348 196.258 132.412 197.298C131.511 198.304 130.523 199.257 129.448 200.158C128.408 201.025 127.316 201.857 126.172 202.654C125.063 203.417 123.936 204.11 122.792 204.734C121.648 205.324 120.521 205.826 119.412 206.242V200.418H120.92C121.475 199.968 122.012 199.517 122.532 199.066C123.087 198.581 123.624 198.061 124.144 197.506C124.664 196.917 125.167 196.31 125.652 195.686C126.172 195.028 126.675 194.334 127.16 193.606C127.888 192.601 128.581 191.457 129.24 190.174C129.899 188.892 130.488 187.488 131.008 185.962C131.563 184.437 132.031 182.79 132.412 181.022H133.244ZM113.536 181.438C114.021 181.334 114.472 181.248 114.888 181.178C115.304 181.109 115.772 181.074 116.292 181.074C117.921 181.074 119.048 181.508 119.672 182.374C120.296 183.241 120.608 184.35 120.608 185.702C120.608 188.406 120.608 191.11 120.608 193.814C120.608 196.518 120.608 199.222 120.608 201.926C120.608 204.596 120.608 207.282 120.608 209.986C120.608 212.69 120.608 215.394 120.608 218.098C120.192 218.202 119.811 218.272 119.464 218.306C119.117 218.376 118.701 218.41 118.216 218.41C116.899 218.41 115.876 218.064 115.148 217.37C114.455 216.642 114.108 215.29 114.108 213.314C114.108 210.402 114.108 207.49 114.108 204.578C114.108 201.666 114.108 198.754 114.108 195.842C114.108 192.93 114.108 190.018 114.108 187.106C114.108 186.101 114.073 185.13 114.004 184.194C113.935 183.224 113.779 182.305 113.536 181.438ZM160.108 213.054H154.492L155.064 211.39C154.544 211.009 154.145 210.437 153.868 209.674C153.59 208.912 153.452 208.01 153.452 206.97C153.452 205.306 153.452 203.625 153.452 201.926C153.452 200.193 153.452 198.477 153.452 196.778C153.452 195.045 153.452 193.329 153.452 191.63C153.452 189.897 153.452 188.164 153.452 186.43H159.068L158.496 188.094C159.016 188.476 159.414 189.048 159.692 189.81C159.969 190.573 160.108 191.474 160.108 192.514C160.108 194.213 160.108 195.912 160.108 197.61C160.108 199.274 160.108 200.973 160.108 202.706C160.108 204.44 160.108 206.173 160.108 207.906C160.108 209.605 160.108 211.321 160.108 213.054ZM169.416 217.942H146.588C146.102 217.942 145.686 217.856 145.34 217.682C144.993 217.509 144.716 217.266 144.508 216.954C144.3 216.608 144.144 216.209 144.04 215.758C143.936 215.308 143.884 214.788 143.884 214.198C143.884 213.852 143.901 213.54 143.936 213.262C143.97 212.95 144.005 212.656 144.04 212.378C144.074 212.101 144.126 211.858 144.196 211.65H163.644C165.238 211.65 166.469 211.858 167.336 212.274C168.202 212.656 168.809 213.193 169.156 213.886C169.502 214.545 169.676 215.29 169.676 216.122C169.676 216.33 169.658 216.538 169.624 216.746C169.589 216.954 169.554 217.162 169.52 217.37C169.485 217.544 169.45 217.734 169.416 217.942ZM144.144 181.542H167.024C168.133 181.542 168.844 181.924 169.156 182.686C169.502 183.414 169.676 184.35 169.676 185.494C169.676 185.668 169.658 185.858 169.624 186.066C169.624 186.24 169.606 186.43 169.572 186.638C169.537 186.846 169.502 187.054 169.468 187.262C169.433 187.436 169.381 187.626 169.312 187.834H149.968C147.888 187.834 146.345 187.488 145.34 186.794C144.369 186.066 143.884 184.905 143.884 183.31C143.884 183.172 143.884 183.016 143.884 182.842C143.918 182.669 143.936 182.513 143.936 182.374C143.97 182.201 144.005 182.045 144.04 181.906C144.074 181.733 144.109 181.612 144.144 181.542ZM174.387 181.542H197.267C198.099 181.542 198.723 181.785 199.139 182.27C199.59 182.721 199.885 183.276 200.023 183.934C200.197 184.558 200.283 185.096 200.283 185.546C200.283 186.032 200.266 186.465 200.231 186.846C200.197 187.193 200.11 187.522 199.971 187.834H176.259C175.739 187.834 175.323 187.626 175.011 187.21C174.734 186.794 174.526 186.274 174.387 185.65C174.283 185.026 174.231 184.385 174.231 183.726C174.231 183.38 174.249 183.016 174.283 182.634C174.318 182.253 174.353 181.889 174.387 181.542ZM181.199 197.922H193.887C194.685 197.922 195.326 198.13 195.811 198.546C196.331 198.928 196.695 199.43 196.903 200.054C197.111 200.678 197.215 201.337 197.215 202.03C197.215 202.204 197.215 202.377 197.215 202.55C197.215 202.724 197.198 202.88 197.163 203.018C197.163 203.157 197.146 203.296 197.111 203.434H181.199V197.922ZM183.643 217.942C182.742 217.942 181.893 217.786 181.095 217.474C180.298 217.128 179.587 216.677 178.963 216.122C178.339 215.533 177.854 214.909 177.507 214.25C177.161 213.592 176.987 212.933 176.987 212.274C176.987 210.576 176.987 208.86 176.987 207.126C176.987 205.393 176.987 203.66 176.987 201.926C176.987 200.158 176.987 198.408 176.987 196.674C176.987 194.941 176.987 193.242 176.987 191.578C176.987 189.88 176.987 188.216 176.987 186.586H182.603L182.031 188.094C182.621 188.51 183.037 189.048 183.279 189.706C183.522 190.365 183.643 191.18 183.643 192.15C183.643 193.745 183.643 195.357 183.643 196.986C183.643 198.616 183.643 200.262 183.643 201.926C183.643 203.556 183.643 205.185 183.643 206.814C183.643 208.444 183.643 210.056 183.643 211.65H195.707C196.99 211.65 198.082 211.962 198.983 212.586C199.885 213.176 200.335 214.164 200.335 215.55C200.335 216.001 200.301 216.452 200.231 216.902C200.197 217.318 200.145 217.665 200.075 217.942H183.643Z" fill="#907226"/>
</svg>
