<svg width="32" height="32" viewBox="0 0 32 32" fill="none" xmlns="http://www.w3.org/2000/svg">
<g id="Property 1=Sin guardar">
<path id="Vector" d="M8.82129 28C8.20707 28 7.69463 27.7947 7.28396 27.384C6.87329 26.9733 6.66751 26.4609 6.66663 25.8467V6.15333C6.66663 5.54 6.8724 5.028 7.28396 4.61733C7.69551 4.20667 8.20796 4.00089 8.82129 4H23.18C23.7933 4 24.3057 4.20578 24.7173 4.61733C25.1288 5.02889 25.3342 5.54133 25.3333 6.15467V25.8467C25.3333 26.46 25.128 26.9724 24.7173 27.384C24.3066 27.7956 23.7937 28.0009 23.1786 28H8.82129ZM8.82129 26.6667H23.18C23.3844 26.6667 23.5724 26.5813 23.744 26.4107C23.9155 26.24 24.0008 26.0516 24 25.8453V6.15467C24 5.94933 23.9146 5.76089 23.744 5.58933C23.5733 5.41778 23.3848 5.33244 23.1786 5.33333H21.3333V13.488L18.6666 11.8973L16 13.488V5.33333H8.82129C8.61596 5.33333 8.42751 5.41867 8.25596 5.58933C8.0844 5.76 7.99907 5.948 7.99996 6.15333V25.8467C7.99996 26.0511 8.08529 26.2391 8.25596 26.4107C8.42663 26.5822 8.61463 26.6676 8.81996 26.6667" fill="black"/>
</g>
</svg>
