<svg width="32" height="32" viewBox="0 0 32 32" fill="none" xmlns="http://www.w3.org/2000/svg">
<g id="Property 1=Guardado">
<path id="Vector" d="M9.15467 28C8.54044 28 8.028 27.7947 7.61733 27.384C7.20667 26.9733 7.00089 26.4609 7 25.8467V6.15333C7 5.54 7.20578 5.028 7.61733 4.61733C8.02889 4.20667 8.54133 4.00089 9.15467 4H23.5133C24.1267 4 24.6391 4.20578 25.0507 4.61733C25.4622 5.02889 25.6676 5.54133 25.6667 6.15467V25.8467C25.6667 26.46 25.4613 26.9724 25.0507 27.384C24.64 27.7956 24.1271 28.0009 23.512 28H9.15467ZM16.3333 5.33333V12.552C16.3333 12.7671 16.4178 12.9271 16.5867 13.032C16.7547 13.1369 16.9351 13.1316 17.128 13.016L18.428 12.2533C18.6164 12.1378 18.8018 12.08 18.984 12.08C19.1662 12.08 19.3511 12.1378 19.5387 12.2533L20.8387 13.016C21.0316 13.1316 21.2178 13.1369 21.3973 13.032C21.5769 12.9271 21.6667 12.7671 21.6667 12.552V5.33333H16.3333Z" fill="black"/>
</g>
</svg>
