<svg width="40" height="41" viewBox="0 0 40 41" fill="none" xmlns="http://www.w3.org/2000/svg">
<mask id="mask0_137_1912" style="mask-type:alpha" maskUnits="userSpaceOnUse" x="0" y="0" width="40" height="41">
<rect y="0.530029" width="40" height="40" fill="#D9D9D9"/>
</mask>
<g mask="url(#mask0_137_1912)">
<path d="M19.9999 37.1967C17.7221 37.1967 15.5694 36.7592 13.5416 35.8842C11.5138 35.0092 9.74297 33.8148 8.22908 32.3009C6.7152 30.787 5.52075 29.0162 4.64575 26.9884C3.77075 24.9606 3.33325 22.8078 3.33325 20.5301C3.33325 18.2245 3.77075 16.0648 4.64575 14.0509C5.52075 12.037 6.7152 10.2731 8.22908 8.75924C9.74297 7.24535 11.5138 6.0509 13.5416 5.1759C15.5694 4.3009 17.7221 3.8634 19.9999 3.8634C20.4721 3.8634 20.868 4.02313 21.1874 4.34257C21.5069 4.66201 21.6666 5.05785 21.6666 5.53007C21.6666 6.00229 21.5069 6.39813 21.1874 6.71757C20.868 7.03701 20.4721 7.19674 19.9999 7.19674C16.3055 7.19674 13.1596 8.49535 10.5624 11.0926C7.9652 13.6898 6.66659 16.8356 6.66659 20.5301C6.66659 24.2245 7.9652 27.3703 10.5624 29.9676C13.1596 32.5648 16.3055 33.8634 19.9999 33.8634C23.6944 33.8634 26.8402 32.5648 29.4374 29.9676C32.0346 27.3703 33.3333 24.2245 33.3333 20.5301C33.3333 20.0578 33.493 19.662 33.8124 19.3426C34.1319 19.0231 34.5277 18.8634 34.9999 18.8634C35.4721 18.8634 35.868 19.0231 36.1874 19.3426C36.5069 19.662 36.6666 20.0578 36.6666 20.5301C36.6666 22.8078 36.2291 24.9606 35.3541 26.9884C34.4791 29.0162 33.2846 30.787 31.7708 32.3009C30.2569 33.8148 28.493 35.0092 26.4791 35.8842C24.4652 36.7592 22.3055 37.1967 19.9999 37.1967Z" fill="black"/>
</g>
</svg>
