<svg width="32" height="32" viewBox="0 0 32 32" fill="none" xmlns="http://www.w3.org/2000/svg">
<g id="queue_music">
<mask id="mask0_145_3380" style="mask-type:alpha" maskUnits="userSpaceOnUse" x="0" y="0" width="32" height="32">
<rect id="Bounding box" width="32" height="32" fill="#D9D9D9"/>
</mask>
<g mask="url(#mask0_145_3380)">
<path id="queue_music_2" d="M21.3333 26.6667C20.2222 26.6667 19.2778 26.2778 18.5 25.5C17.7222 24.7222 17.3333 23.7778 17.3333 22.6667C17.3333 21.5556 17.7222 20.6111 18.5 19.8333C19.2778 19.0556 20.2222 18.6667 21.3333 18.6667C21.5778 18.6667 21.8111 18.6833 22.0333 18.7167C22.2556 18.75 22.4667 18.8222 22.6667 18.9333V8H29.3333V10.6667H25.3333V22.6667C25.3333 23.7778 24.9444 24.7222 24.1667 25.5C23.3889 26.2778 22.4444 26.6667 21.3333 26.6667ZM4 21.3333V18.6667H14.6667V21.3333H4ZM4 16V13.3333H20V16H4ZM4 10.6667V8H20V10.6667H4Z" fill="black"/>
</g>
</g>
</svg>
