<svg width="250" height="250" viewBox="0 0 250 250" fill="none" xmlns="http://www.w3.org/2000/svg">
<mask id="mask0_137_1786" style="mask-type:alpha" maskUnits="userSpaceOnUse" x="0" y="0" width="250" height="250">
<rect width="250" height="250" fill="#D9D9D9"/>
</mask>
<g mask="url(#mask0_137_1786)">
<path d="M115.104 156.25L85.9377 127.083L100.521 112.5L115.104 127.083L152.084 90.1041L166.667 104.687L115.104 156.25ZM72.9168 239.583C67.1877 239.583 62.2831 237.543 58.2033 233.464C54.1234 229.384 52.0835 224.479 52.0835 218.75V31.25C52.0835 25.5208 54.1234 20.6163 58.2033 16.5364C62.2831 12.4566 67.1877 10.4166 72.9168 10.4166H177.083C182.813 10.4166 187.717 12.4566 191.797 16.5364C195.877 20.6163 197.917 25.5208 197.917 31.25V218.75C197.917 224.479 195.877 229.384 191.797 233.464C187.717 237.543 182.813 239.583 177.083 239.583H72.9168ZM72.9168 208.333V218.75H177.083V208.333H72.9168ZM72.9168 187.5H177.083V62.5H72.9168V187.5ZM72.9168 41.6666H177.083V31.25H72.9168V41.6666Z" fill="#006078"/>
</g>
</svg>
