<svg width="24" height="37" viewBox="0 0 24 37" fill="none" xmlns="http://www.w3.org/2000/svg">
<path d="M20.4847 3.6275C18.3034 1.37625 15.3073 0 12.0002 0C8.69306 0 5.68033 1.37625 3.51561 3.6275C1.33397 5.86086 0 8.95263 0 12.383C0 17.2798 5.61105 26.4282 9.55895 32.8437C10.4938 34.3806 11.3418 35.7562 12.0002 36.882C12.6406 35.7562 13.4893 34.3806 14.4414 32.8437C18.3724 26.4282 24 17.2798 24 12.383C24 8.95231 22.6494 5.86086 20.4847 3.6275ZM12.0002 20.4597C7.33958 20.4597 3.56147 16.5606 3.56147 11.751C3.56147 6.94144 7.33958 3.04233 12.0002 3.04233C16.6607 3.04233 20.4389 6.94144 20.4389 11.751C20.4389 16.5606 16.6607 20.4597 12.0002 20.4597Z" fill="#906E2A"/>
<path d="M12.5871 12.7011C12.405 12.8443 12.1783 12.9301 11.9317 12.9301C11.3332 12.9301 10.8479 12.4292 10.8479 11.8115C10.8479 11.6128 10.8986 11.4264 10.9868 11.2647L10.0646 10.4372C9.19059 12.759 8.31689 15.0805 7.44287 17.4024C9.48724 16.1312 11.5316 14.86 13.576 13.5888L12.5871 12.7015V12.7011Z" fill="#006078"/>
<path d="M10.0516 10.4255L10.9868 11.2647C11.1725 10.9238 11.5258 10.6929 11.9317 10.6929C12.5302 10.6929 13.0155 11.1938 13.0155 11.8115C13.0155 12.1748 12.847 12.4969 12.5868 12.7011L13.5626 13.5768C14.5609 11.0845 15.5592 8.5919 16.5575 6.09929C14.3889 7.54125 12.2199 8.98321 10.0513 10.4252L10.0516 10.4255Z" fill="#006078"/>
</svg>
